%TF.GenerationSoftware,KiCad,Pcbnew,8.0.1*%
%TF.CreationDate,2025-01-10T22:18:19+05:00*%
%TF.ProjectId,BENE_DOUBLE_V1,42454e45-5f44-44f5-9542-4c455f56312e,rev?*%
%TF.SameCoordinates,Original*%
%TF.FileFunction,Paste,Bot*%
%TF.FilePolarity,Positive*%
%FSLAX46Y46*%
G04 Gerber Fmt 4.6, Leading zero omitted, Abs format (unit mm)*
G04 Created by KiCad (PCBNEW 8.0.1) date 2025-01-10 22:18:19*
%MOMM*%
%LPD*%
G01*
G04 APERTURE LIST*
G04 Aperture macros list*
%AMRoundRect*
0 Rectangle with rounded corners*
0 $1 Rounding radius*
0 $2 $3 $4 $5 $6 $7 $8 $9 X,Y pos of 4 corners*
0 Add a 4 corners polygon primitive as box body*
4,1,4,$2,$3,$4,$5,$6,$7,$8,$9,$2,$3,0*
0 Add four circle primitives for the rounded corners*
1,1,$1+$1,$2,$3*
1,1,$1+$1,$4,$5*
1,1,$1+$1,$6,$7*
1,1,$1+$1,$8,$9*
0 Add four rect primitives between the rounded corners*
20,1,$1+$1,$2,$3,$4,$5,0*
20,1,$1+$1,$4,$5,$6,$7,0*
20,1,$1+$1,$6,$7,$8,$9,0*
20,1,$1+$1,$8,$9,$2,$3,0*%
G04 Aperture macros list end*
%ADD10RoundRect,0.079500X0.079500X0.100500X-0.079500X0.100500X-0.079500X-0.100500X0.079500X-0.100500X0*%
%ADD11RoundRect,0.079500X-0.079500X-0.100500X0.079500X-0.100500X0.079500X0.100500X-0.079500X0.100500X0*%
%ADD12RoundRect,0.140000X0.140000X0.170000X-0.140000X0.170000X-0.140000X-0.170000X0.140000X-0.170000X0*%
%ADD13RoundRect,0.250000X1.100000X-0.325000X1.100000X0.325000X-1.100000X0.325000X-1.100000X-0.325000X0*%
%ADD14RoundRect,0.135000X0.135000X0.185000X-0.135000X0.185000X-0.135000X-0.185000X0.135000X-0.185000X0*%
%ADD15RoundRect,0.079500X0.100500X-0.079500X0.100500X0.079500X-0.100500X0.079500X-0.100500X-0.079500X0*%
%ADD16RoundRect,0.140000X-0.140000X-0.170000X0.140000X-0.170000X0.140000X0.170000X-0.140000X0.170000X0*%
%ADD17RoundRect,0.250000X0.325000X1.100000X-0.325000X1.100000X-0.325000X-1.100000X0.325000X-1.100000X0*%
%ADD18RoundRect,0.225000X-0.250000X0.225000X-0.250000X-0.225000X0.250000X-0.225000X0.250000X0.225000X0*%
%ADD19R,1.500000X0.800000*%
%ADD20RoundRect,0.140000X0.170000X-0.140000X0.170000X0.140000X-0.170000X0.140000X-0.170000X-0.140000X0*%
%ADD21RoundRect,0.250000X-0.250000X-0.475000X0.250000X-0.475000X0.250000X0.475000X-0.250000X0.475000X0*%
%ADD22RoundRect,0.250000X0.250000X0.475000X-0.250000X0.475000X-0.250000X-0.475000X0.250000X-0.475000X0*%
%ADD23RoundRect,0.140000X-0.170000X0.140000X-0.170000X-0.140000X0.170000X-0.140000X0.170000X0.140000X0*%
%ADD24RoundRect,0.250000X-0.475000X0.250000X-0.475000X-0.250000X0.475000X-0.250000X0.475000X0.250000X0*%
%ADD25RoundRect,0.135000X-0.185000X0.135000X-0.185000X-0.135000X0.185000X-0.135000X0.185000X0.135000X0*%
%ADD26RoundRect,0.135000X-0.135000X-0.185000X0.135000X-0.185000X0.135000X0.185000X-0.135000X0.185000X0*%
%ADD27R,0.508000X0.952500*%
%ADD28RoundRect,0.250000X0.475000X-0.250000X0.475000X0.250000X-0.475000X0.250000X-0.475000X-0.250000X0*%
%ADD29RoundRect,0.079500X-0.100500X0.079500X-0.100500X-0.079500X0.100500X-0.079500X0.100500X0.079500X0*%
%ADD30R,0.508000X0.431800*%
%ADD31R,0.508000X0.355600*%
%ADD32RoundRect,0.135000X0.185000X-0.135000X0.185000X0.135000X-0.185000X0.135000X-0.185000X-0.135000X0*%
%ADD33R,1.900000X0.900000*%
%ADD34R,1.900000X3.200000*%
%ADD35R,1.346200X1.524000*%
%ADD36RoundRect,0.147500X-0.172500X0.147500X-0.172500X-0.147500X0.172500X-0.147500X0.172500X0.147500X0*%
%ADD37R,1.500000X0.650000*%
%ADD38RoundRect,0.225000X-0.225000X-0.250000X0.225000X-0.250000X0.225000X0.250000X-0.225000X0.250000X0*%
G04 APERTURE END LIST*
D10*
%TO.C,C97*%
X75395000Y-96200000D03*
X74705000Y-96200000D03*
%TD*%
%TO.C,C94*%
X76195000Y-97000000D03*
X75505000Y-97000000D03*
%TD*%
%TO.C,C103*%
X84145000Y-100250000D03*
X83455000Y-100250000D03*
%TD*%
D11*
%TO.C,C35*%
X130605000Y-104800000D03*
X131295000Y-104800000D03*
%TD*%
D12*
%TO.C,C39*%
X132880000Y-102000000D03*
X131920000Y-102000000D03*
%TD*%
D13*
%TO.C,C126*%
X112200000Y-101575000D03*
X112200000Y-98625000D03*
%TD*%
D14*
%TO.C,R64*%
X107610000Y-113600000D03*
X106590000Y-113600000D03*
%TD*%
D11*
%TO.C,C45*%
X131905000Y-99000000D03*
X132595000Y-99000000D03*
%TD*%
D15*
%TO.C,C37*%
X132000000Y-106445000D03*
X132000000Y-105755000D03*
%TD*%
D10*
%TO.C,C24*%
X129695000Y-102450000D03*
X129005000Y-102450000D03*
%TD*%
D12*
%TO.C,C154*%
X104930000Y-103950000D03*
X103970000Y-103950000D03*
%TD*%
D14*
%TO.C,R47*%
X89360000Y-98500000D03*
X88340000Y-98500000D03*
%TD*%
D16*
%TO.C,C68*%
X71820000Y-98900000D03*
X72780000Y-98900000D03*
%TD*%
D17*
%TO.C,C158*%
X97375000Y-108400000D03*
X94425000Y-108400000D03*
%TD*%
D18*
%TO.C,C121*%
X90862999Y-107504150D03*
X90862999Y-109054150D03*
%TD*%
D19*
%TO.C,Y2*%
X116050000Y-102200000D03*
X116050000Y-100700000D03*
%TD*%
D10*
%TO.C,C101*%
X76995000Y-96200000D03*
X76305000Y-96200000D03*
%TD*%
D20*
%TO.C,C170*%
X99350000Y-103010000D03*
X99350000Y-102050000D03*
%TD*%
D12*
%TO.C,C184*%
X99330000Y-100050000D03*
X98370000Y-100050000D03*
%TD*%
D20*
%TO.C,C23*%
X128050000Y-104960000D03*
X128050000Y-104000000D03*
%TD*%
%TO.C,C69*%
X71800000Y-97980000D03*
X71800000Y-97020000D03*
%TD*%
D16*
%TO.C,C168*%
X100370000Y-107700000D03*
X101330000Y-107700000D03*
%TD*%
D21*
%TO.C,C125*%
X106150000Y-103750000D03*
X108050000Y-103750000D03*
%TD*%
D22*
%TO.C,C161*%
X97400000Y-97100000D03*
X95500000Y-97100000D03*
%TD*%
D11*
%TO.C,C43*%
X129005000Y-98450000D03*
X129695000Y-98450000D03*
%TD*%
D23*
%TO.C,C75*%
X89350000Y-102220000D03*
X89350000Y-103180000D03*
%TD*%
D24*
%TO.C,C149*%
X82250000Y-118950000D03*
X82250000Y-120850000D03*
%TD*%
D17*
%TO.C,C157*%
X97325000Y-111600000D03*
X94375000Y-111600000D03*
%TD*%
D25*
%TO.C,R37*%
X135850000Y-105640000D03*
X135850000Y-106660000D03*
%TD*%
D26*
%TO.C,R32*%
X118490000Y-103250000D03*
X119510000Y-103250000D03*
%TD*%
%TO.C,R33*%
X131890000Y-101050000D03*
X132910000Y-101050000D03*
%TD*%
D16*
%TO.C,C180*%
X105420000Y-106050000D03*
X106380000Y-106050000D03*
%TD*%
D21*
%TO.C,C178*%
X111050000Y-106050000D03*
X112950000Y-106050000D03*
%TD*%
D20*
%TO.C,C104*%
X85050000Y-99380000D03*
X85050000Y-98420000D03*
%TD*%
%TO.C,C182*%
X102400000Y-106030000D03*
X102400000Y-105070000D03*
%TD*%
D10*
%TO.C,C20*%
X128145000Y-98450000D03*
X127455000Y-98450000D03*
%TD*%
D27*
%TO.C,U1*%
X89650000Y-110052700D03*
X88699999Y-110052700D03*
X87749998Y-110052700D03*
X87749998Y-107500000D03*
X89650000Y-107500000D03*
%TD*%
D12*
%TO.C,C171*%
X101330000Y-101050000D03*
X100370000Y-101050000D03*
%TD*%
D14*
%TO.C,R34*%
X132160000Y-96050000D03*
X131140000Y-96050000D03*
%TD*%
D28*
%TO.C,C120*%
X122800000Y-90400000D03*
X122800000Y-88500000D03*
%TD*%
D29*
%TO.C,C79*%
X83250000Y-105905000D03*
X83250000Y-106595000D03*
%TD*%
D12*
%TO.C,C80*%
X83280000Y-102600000D03*
X82320000Y-102600000D03*
%TD*%
%TO.C,C179*%
X105330000Y-97050000D03*
X104370000Y-97050000D03*
%TD*%
D30*
%TO.C,U8*%
X91074650Y-97340641D03*
D31*
X91074650Y-98499999D03*
X90325350Y-98499999D03*
X90325350Y-97300001D03*
%TD*%
D15*
%TO.C,C89*%
X79450000Y-96895000D03*
X79450000Y-96205000D03*
%TD*%
D20*
%TO.C,C175*%
X108350000Y-99030000D03*
X108350000Y-98070000D03*
%TD*%
D16*
%TO.C,C156*%
X103390000Y-101050000D03*
X104350000Y-101050000D03*
%TD*%
D23*
%TO.C,C72*%
X92050000Y-97520000D03*
X92050000Y-98480000D03*
%TD*%
D10*
%TO.C,C92*%
X83345000Y-101750000D03*
X82655000Y-101750000D03*
%TD*%
D22*
%TO.C,C163*%
X96900000Y-102600000D03*
X95000000Y-102600000D03*
%TD*%
D10*
%TO.C,C78*%
X81745000Y-105400000D03*
X81055000Y-105400000D03*
%TD*%
D16*
%TO.C,C174*%
X106320000Y-99000000D03*
X107280000Y-99000000D03*
%TD*%
D12*
%TO.C,C113*%
X104380000Y-103000000D03*
X103420000Y-103000000D03*
%TD*%
D16*
%TO.C,C64*%
X131870000Y-99850000D03*
X132830000Y-99850000D03*
%TD*%
D12*
%TO.C,C77*%
X76330000Y-106600000D03*
X75370000Y-106600000D03*
%TD*%
D23*
%TO.C,C167*%
X109200000Y-105770000D03*
X109200000Y-106730000D03*
%TD*%
D15*
%TO.C,C51*%
X121600000Y-103245000D03*
X121600000Y-102555000D03*
%TD*%
D11*
%TO.C,C109*%
X77705000Y-96200000D03*
X78395000Y-96200000D03*
%TD*%
D12*
%TO.C,C153*%
X104880000Y-104900000D03*
X103920000Y-104900000D03*
%TD*%
D23*
%TO.C,C155*%
X102350000Y-102020000D03*
X102350000Y-102980000D03*
%TD*%
D15*
%TO.C,C27*%
X129750000Y-106345000D03*
X129750000Y-105655000D03*
%TD*%
D29*
%TO.C,C90*%
X77850000Y-97005000D03*
X77850000Y-97695000D03*
%TD*%
D12*
%TO.C,C127*%
X104330000Y-102050000D03*
X103370000Y-102050000D03*
%TD*%
D11*
%TO.C,C41*%
X121775000Y-103950000D03*
X122465000Y-103950000D03*
%TD*%
D15*
%TO.C,C88*%
X79450000Y-104145000D03*
X79450000Y-103455000D03*
%TD*%
D10*
%TO.C,C85*%
X76945000Y-97800000D03*
X76255000Y-97800000D03*
%TD*%
D16*
%TO.C,C183*%
X101370000Y-104000000D03*
X102330000Y-104000000D03*
%TD*%
D20*
%TO.C,C61*%
X115900000Y-105330000D03*
X115900000Y-104370000D03*
%TD*%
D25*
%TO.C,R39*%
X73750000Y-96990000D03*
X73750000Y-98010000D03*
%TD*%
D12*
%TO.C,C176*%
X97430000Y-98600000D03*
X96470000Y-98600000D03*
%TD*%
D32*
%TO.C,R42*%
X76250000Y-102010000D03*
X76250000Y-100990000D03*
%TD*%
D12*
%TO.C,C112*%
X116930000Y-116100000D03*
X115970000Y-116100000D03*
%TD*%
D24*
%TO.C,C150*%
X92800000Y-120350000D03*
X92800000Y-122250000D03*
%TD*%
D15*
%TO.C,C111*%
X83450000Y-96145000D03*
X83450000Y-95455000D03*
%TD*%
D11*
%TO.C,C95*%
X86355000Y-98600000D03*
X87045000Y-98600000D03*
%TD*%
D23*
%TO.C,C129*%
X106200000Y-116020000D03*
X106200000Y-116980000D03*
%TD*%
D12*
%TO.C,C181*%
X104380000Y-108050000D03*
X103420000Y-108050000D03*
%TD*%
D11*
%TO.C,C93*%
X77905000Y-98600000D03*
X78595000Y-98600000D03*
%TD*%
D16*
%TO.C,C165*%
X100440000Y-98100000D03*
X101400000Y-98100000D03*
%TD*%
D10*
%TO.C,C47*%
X121095000Y-99250000D03*
X120405000Y-99250000D03*
%TD*%
D19*
%TO.C,Y3*%
X90800000Y-100800000D03*
X90800000Y-102300000D03*
%TD*%
D20*
%TO.C,C63*%
X117450000Y-100680000D03*
X117450000Y-99720000D03*
%TD*%
D11*
%TO.C,C34*%
X129055000Y-104850000D03*
X129745000Y-104850000D03*
%TD*%
%TO.C,C83*%
X85905000Y-103400000D03*
X86595000Y-103400000D03*
%TD*%
D10*
%TO.C,C18*%
X130545000Y-101600000D03*
X129855000Y-101600000D03*
%TD*%
D11*
%TO.C,C38*%
X132155000Y-108050000D03*
X132845000Y-108050000D03*
%TD*%
D20*
%TO.C,C81*%
X73600000Y-95480000D03*
X73600000Y-94520000D03*
%TD*%
D16*
%TO.C,C172*%
X111320000Y-102800000D03*
X112280000Y-102800000D03*
%TD*%
D12*
%TO.C,C124*%
X104330000Y-100050000D03*
X103370000Y-100050000D03*
%TD*%
D10*
%TO.C,C102*%
X75495000Y-94650000D03*
X74805000Y-94650000D03*
%TD*%
D32*
%TO.C,R68*%
X94200000Y-117310000D03*
X94200000Y-116290000D03*
%TD*%
D33*
%TO.C,IC6*%
X84500000Y-123550000D03*
X84500000Y-121250000D03*
X84500000Y-118950000D03*
D34*
X90600000Y-121250000D03*
%TD*%
D11*
%TO.C,C96*%
X77105000Y-101800000D03*
X77795000Y-101800000D03*
%TD*%
D24*
%TO.C,C164*%
X108400000Y-108050000D03*
X108400000Y-109950000D03*
%TD*%
D12*
%TO.C,C17*%
X130580000Y-100850000D03*
X129620000Y-100850000D03*
%TD*%
D11*
%TO.C,C100*%
X77155000Y-103400000D03*
X77845000Y-103400000D03*
%TD*%
D12*
%TO.C,C169*%
X102330000Y-97050000D03*
X101370000Y-97050000D03*
%TD*%
D32*
%TO.C,R38*%
X70850000Y-98010000D03*
X70850000Y-96990000D03*
%TD*%
D23*
%TO.C,C128*%
X102350000Y-100070000D03*
X102350000Y-101030000D03*
%TD*%
D15*
%TO.C,C99*%
X78650000Y-104145000D03*
X78650000Y-103455000D03*
%TD*%
D16*
%TO.C,C123*%
X87732999Y-106304150D03*
X88692999Y-106304150D03*
%TD*%
D11*
%TO.C,C33*%
X131255000Y-107200000D03*
X131945000Y-107200000D03*
%TD*%
D15*
%TO.C,C46*%
X125750000Y-97645000D03*
X125750000Y-96955000D03*
%TD*%
D11*
%TO.C,C26*%
X130555000Y-106400000D03*
X131245000Y-106400000D03*
%TD*%
D14*
%TO.C,R40*%
X85060000Y-93850000D03*
X84040000Y-93850000D03*
%TD*%
D26*
%TO.C,R31*%
X118490000Y-104200000D03*
X119510000Y-104200000D03*
%TD*%
D14*
%TO.C,R35*%
X122560000Y-109100000D03*
X121540000Y-109100000D03*
%TD*%
D26*
%TO.C,R41*%
X75240000Y-108450000D03*
X76260000Y-108450000D03*
%TD*%
D23*
%TO.C,C66*%
X134800000Y-105670000D03*
X134800000Y-106630000D03*
%TD*%
D14*
%TO.C,R65*%
X116960000Y-114850000D03*
X115940000Y-114850000D03*
%TD*%
D20*
%TO.C,C65*%
X133850000Y-106630000D03*
X133850000Y-105670000D03*
%TD*%
D15*
%TO.C,C40*%
X124150000Y-106425000D03*
X124150000Y-105735000D03*
%TD*%
D20*
%TO.C,C71*%
X74950000Y-101980000D03*
X74950000Y-101020000D03*
%TD*%
D10*
%TO.C,C19*%
X130545000Y-99250000D03*
X129855000Y-99250000D03*
%TD*%
%TO.C,C36*%
X131245000Y-105600000D03*
X130555000Y-105600000D03*
%TD*%
D11*
%TO.C,C86*%
X74605000Y-95500000D03*
X75295000Y-95500000D03*
%TD*%
D16*
%TO.C,C173*%
X109340000Y-103250000D03*
X110300000Y-103250000D03*
%TD*%
D11*
%TO.C,C110*%
X76255000Y-95400000D03*
X76945000Y-95400000D03*
%TD*%
D20*
%TO.C,C73*%
X89350000Y-101330000D03*
X89350000Y-100370000D03*
%TD*%
D12*
%TO.C,C82*%
X75480000Y-93750000D03*
X74520000Y-93750000D03*
%TD*%
D15*
%TO.C,C32*%
X132900000Y-107195000D03*
X132900000Y-106505000D03*
%TD*%
D29*
%TO.C,C106*%
X77050000Y-99355000D03*
X77050000Y-100045000D03*
%TD*%
%TO.C,C98*%
X79450000Y-97855000D03*
X79450000Y-98545000D03*
%TD*%
D12*
%TO.C,C67*%
X136780000Y-107550000D03*
X135820000Y-107550000D03*
%TD*%
D35*
%TO.C,X1*%
X100150000Y-116950000D03*
X100150000Y-111950000D03*
X104350000Y-111950000D03*
X104350000Y-116950000D03*
%TD*%
D13*
%TO.C,C160*%
X105950000Y-93525000D03*
X105950000Y-90575000D03*
%TD*%
D15*
%TO.C,C48*%
X124150000Y-96445000D03*
X124150000Y-95755000D03*
%TD*%
D14*
%TO.C,R48*%
X89360000Y-99450000D03*
X88340000Y-99450000D03*
%TD*%
D10*
%TO.C,C87*%
X75695000Y-103400000D03*
X75005000Y-103400000D03*
%TD*%
D11*
%TO.C,C42*%
X123405000Y-103250000D03*
X124095000Y-103250000D03*
%TD*%
D15*
%TO.C,C29*%
X130550000Y-103245000D03*
X130550000Y-102555000D03*
%TD*%
D12*
%TO.C,C166*%
X103280000Y-99050000D03*
X102320000Y-99050000D03*
%TD*%
D10*
%TO.C,C28*%
X129715000Y-103250000D03*
X129025000Y-103250000D03*
%TD*%
D15*
%TO.C,C44*%
X124900000Y-97595000D03*
X124900000Y-96905000D03*
%TD*%
D20*
%TO.C,C50*%
X122450000Y-103130000D03*
X122450000Y-102170000D03*
%TD*%
D24*
%TO.C,C119*%
X112250000Y-88150000D03*
X112250000Y-90050000D03*
%TD*%
D10*
%TO.C,C30*%
X129695000Y-104050000D03*
X129005000Y-104050000D03*
%TD*%
D36*
%TO.C,D11*%
X95300000Y-116315000D03*
X95300000Y-117285000D03*
%TD*%
D15*
%TO.C,C108*%
X84100000Y-99395000D03*
X84100000Y-98705000D03*
%TD*%
%TO.C,C107*%
X82750000Y-104895000D03*
X82750000Y-104205000D03*
%TD*%
D23*
%TO.C,C62*%
X117450000Y-102220000D03*
X117450000Y-103180000D03*
%TD*%
D30*
%TO.C,U7*%
X116775350Y-105359359D03*
D31*
X116775350Y-104200001D03*
X117524650Y-104200001D03*
X117524650Y-105399999D03*
%TD*%
D23*
%TO.C,C70*%
X72800000Y-97020000D03*
X72800000Y-97980000D03*
%TD*%
D14*
%TO.C,RD11*%
X104360000Y-118800000D03*
X103340000Y-118800000D03*
%TD*%
D11*
%TO.C,C105*%
X77905000Y-99400000D03*
X78595000Y-99400000D03*
%TD*%
D32*
%TO.C,R36*%
X136800000Y-106660000D03*
X136800000Y-105640000D03*
%TD*%
D37*
%TO.C,IC8*%
X109100000Y-116105000D03*
X109100000Y-114835000D03*
X109100000Y-113565000D03*
X109100000Y-112295000D03*
X114500000Y-112295000D03*
X114500000Y-113565000D03*
X114500000Y-114835000D03*
X114500000Y-116105000D03*
%TD*%
D15*
%TO.C,C49*%
X131150000Y-95195000D03*
X131150000Y-94505000D03*
%TD*%
D11*
%TO.C,C22*%
X124705000Y-100050000D03*
X125395000Y-100050000D03*
%TD*%
D14*
%TO.C,RD14*%
X104360000Y-110400000D03*
X103340000Y-110400000D03*
%TD*%
D11*
%TO.C,C84*%
X82605000Y-103400000D03*
X83295000Y-103400000D03*
%TD*%
D33*
%TO.C,IC5*%
X120600000Y-85850000D03*
X120600000Y-88150000D03*
X120600000Y-90450000D03*
D34*
X114500000Y-88150000D03*
%TD*%
D20*
%TO.C,C31*%
X127000000Y-104980000D03*
X127000000Y-104020000D03*
%TD*%
D28*
%TO.C,C162*%
X99400000Y-94550000D03*
X99400000Y-92650000D03*
%TD*%
D13*
%TO.C,C159*%
X112150000Y-97075000D03*
X112150000Y-94125000D03*
%TD*%
D38*
%TO.C,C122*%
X87725000Y-111500000D03*
X89275000Y-111500000D03*
%TD*%
D11*
%TO.C,C25*%
X131375000Y-103250000D03*
X132065000Y-103250000D03*
%TD*%
%TO.C,C21*%
X125555000Y-99250000D03*
X126245000Y-99250000D03*
%TD*%
D10*
%TO.C,C91*%
X76295000Y-107550000D03*
X75605000Y-107550000D03*
%TD*%
D13*
%TO.C,C177*%
X102850000Y-93525000D03*
X102850000Y-90575000D03*
%TD*%
M02*
