%TF.GenerationSoftware,KiCad,Pcbnew,8.0.1*%
%TF.CreationDate,2025-01-10T22:18:19+05:00*%
%TF.ProjectId,BENE_DOUBLE_V1,42454e45-5f44-44f5-9542-4c455f56312e,rev?*%
%TF.SameCoordinates,Original*%
%TF.FileFunction,Copper,L4,Inr*%
%TF.FilePolarity,Positive*%
%FSLAX46Y46*%
G04 Gerber Fmt 4.6, Leading zero omitted, Abs format (unit mm)*
G04 Created by KiCad (PCBNEW 8.0.1) date 2025-01-10 22:18:19*
%MOMM*%
%LPD*%
G01*
G04 APERTURE LIST*
%TA.AperFunction,ComponentPad*%
%ADD10C,6.400000*%
%TD*%
%TA.AperFunction,ComponentPad*%
%ADD11R,1.700000X1.700000*%
%TD*%
%TA.AperFunction,ComponentPad*%
%ADD12O,1.700000X1.700000*%
%TD*%
%TA.AperFunction,ViaPad*%
%ADD13C,0.400000*%
%TD*%
%TA.AperFunction,ViaPad*%
%ADD14C,0.600000*%
%TD*%
%TA.AperFunction,ViaPad*%
%ADD15C,0.800000*%
%TD*%
%TA.AperFunction,ViaPad*%
%ADD16C,1.000000*%
%TD*%
%TA.AperFunction,Conductor*%
%ADD17C,1.000000*%
%TD*%
%TA.AperFunction,Conductor*%
%ADD18C,0.150000*%
%TD*%
%TA.AperFunction,Conductor*%
%ADD19C,0.120000*%
%TD*%
G04 APERTURE END LIST*
D10*
%TO.N,GND*%
%TO.C,H3*%
X58000000Y-128000000D03*
%TD*%
D11*
%TO.N,FPGA_3V3*%
%TO.C,J7*%
X140610000Y-85750000D03*
D12*
%TO.N,/FPGA/JTAG_TCK*%
X138070000Y-85750000D03*
%TO.N,/FPGA/JTAG_TDI*%
X135530000Y-85750000D03*
%TO.N,/FPGA/JTAG_TDO*%
X132990000Y-85750000D03*
%TO.N,/FPGA/JTAG_TMS*%
X130450000Y-85750000D03*
%TO.N,GND*%
X127910000Y-85750000D03*
%TD*%
D10*
%TO.N,GND*%
%TO.C,H2*%
X58000000Y-86000000D03*
%TD*%
%TO.N,GND*%
%TO.C,H1*%
X150000000Y-86000000D03*
%TD*%
%TO.N,GND*%
%TO.C,H4*%
X150000000Y-128000000D03*
%TD*%
D11*
%TO.N,/MCU/MOSI*%
%TO.C,J4*%
X116920000Y-130500000D03*
D12*
%TO.N,/MCU/MISO*%
X119460000Y-130500000D03*
%TO.N,/MCU/SCK*%
X122000000Y-130500000D03*
%TO.N,/MCU/RESET*%
X124540000Y-130500000D03*
%TO.N,VDD_3V3*%
X127080000Y-130500000D03*
%TO.N,GND*%
X129620000Y-130500000D03*
%TD*%
D13*
%TO.N,FPGA_3V3*%
X108800000Y-99600000D03*
X109850000Y-96550000D03*
D14*
X107700000Y-117350000D03*
X137750000Y-110300000D03*
D13*
X101934736Y-96633714D03*
X105850000Y-100550000D03*
D14*
X116950000Y-87950000D03*
X87750000Y-114050000D03*
D13*
X98900000Y-108500000D03*
X97900000Y-102610000D03*
X99852775Y-102553138D03*
X105800000Y-102500000D03*
X97850000Y-94550000D03*
X107850000Y-102550000D03*
X101788679Y-103548641D03*
X109900000Y-106500000D03*
X103829050Y-107470454D03*
D14*
X118000000Y-87950000D03*
X113200000Y-116100000D03*
D13*
X98850000Y-97550000D03*
X103840948Y-99515257D03*
X97800000Y-106500000D03*
X99850000Y-99550000D03*
X109950000Y-101650000D03*
D14*
X133000000Y-89700000D03*
D13*
X108900000Y-104600000D03*
D14*
X135550000Y-89700000D03*
D13*
X107950000Y-95450000D03*
D14*
X142180000Y-112400000D03*
X113350000Y-110100000D03*
D13*
X99850000Y-98550000D03*
X104829227Y-97594520D03*
D14*
X118900000Y-87950000D03*
D13*
X101668954Y-100528431D03*
D14*
X117000000Y-114150000D03*
D13*
X104846432Y-105560000D03*
D14*
X130450000Y-89700000D03*
D13*
X108850000Y-107750000D03*
X102846182Y-105614780D03*
X102883558Y-103566955D03*
D14*
X138050000Y-89700000D03*
D15*
X88450000Y-89550000D03*
D13*
X106724553Y-99430217D03*
X103815229Y-95600000D03*
D14*
X122350000Y-83500000D03*
D13*
%TO.N,FPGA_1V2*%
X104853138Y-100547225D03*
X104850000Y-103350000D03*
X101000000Y-99550000D03*
X102850000Y-101550000D03*
X98850000Y-104650000D03*
%TO.N,/USB_C/USB_D-*%
X149400000Y-116800000D03*
X149375000Y-115800000D03*
%TO.N,/FPGA/FPGA_DONE*%
X107900000Y-106600000D03*
X112300000Y-110200000D03*
D15*
%TO.N,GND*%
X143450000Y-114450000D03*
X89100000Y-115550000D03*
X66800000Y-129950000D03*
D13*
X98850000Y-96550000D03*
X128100000Y-101150000D03*
X101794508Y-108198517D03*
D15*
X84750000Y-84150000D03*
D13*
X82400000Y-100200000D03*
D15*
X64050000Y-84200000D03*
D13*
X97999826Y-104504815D03*
D16*
X146650000Y-125300000D03*
X152350000Y-118600000D03*
D13*
X80650000Y-96600000D03*
X82150000Y-103950000D03*
X114800000Y-86000000D03*
D15*
X59800000Y-122950000D03*
D13*
X126200000Y-96500000D03*
D15*
X79800000Y-130700000D03*
D13*
X125050000Y-101050000D03*
D15*
X89950000Y-118750000D03*
D14*
X69500000Y-99250000D03*
D15*
X56650000Y-95850000D03*
X119600000Y-112950000D03*
D16*
X148150000Y-92100000D03*
D13*
X105300000Y-91600000D03*
X95700000Y-109050000D03*
D15*
X61400000Y-91250000D03*
D16*
X148950000Y-107100000D03*
D15*
X67200000Y-89400000D03*
D14*
X92750000Y-114700000D03*
D15*
X96400000Y-122200000D03*
X112900000Y-130250000D03*
D16*
X59750000Y-104150000D03*
D15*
X69800000Y-116700000D03*
X100850000Y-84550000D03*
D13*
X80594220Y-106200110D03*
X103800000Y-106600000D03*
D14*
X99900000Y-115600000D03*
X101200000Y-127200000D03*
D16*
X150750000Y-108650000D03*
D14*
X105150000Y-119950000D03*
D13*
X105200000Y-87950000D03*
D15*
X60000000Y-91150000D03*
D13*
X129000000Y-94800000D03*
D15*
X95300000Y-84550000D03*
X122100000Y-112950000D03*
D16*
X55750000Y-105950000D03*
X147150000Y-107100000D03*
D13*
X130200000Y-105300000D03*
X76705776Y-100600106D03*
D16*
X152400000Y-113200000D03*
D15*
X67200000Y-87850000D03*
D13*
X103000000Y-85600000D03*
X104920955Y-102548092D03*
X104600000Y-86000000D03*
D14*
X143800000Y-117250000D03*
D15*
X120900000Y-125500000D03*
X75800000Y-130650000D03*
D16*
X150750000Y-111000000D03*
D15*
X97700000Y-84550000D03*
D13*
X126225000Y-106150000D03*
X102932886Y-99665950D03*
D16*
X151850000Y-92050000D03*
D13*
X134800000Y-107300000D03*
D16*
X142450000Y-123300000D03*
D13*
X100800000Y-102500000D03*
X107850000Y-100550000D03*
D15*
X90400000Y-112400000D03*
D13*
X119800000Y-108400000D03*
D15*
X67200000Y-86050000D03*
X83800000Y-130750000D03*
X63800000Y-122550000D03*
D14*
X119900000Y-118350000D03*
D15*
X68350000Y-130000000D03*
D16*
X146750000Y-111000000D03*
X152350000Y-116800000D03*
D15*
X70200000Y-89400000D03*
D16*
X140400000Y-129900000D03*
D14*
X106200000Y-115224998D03*
D15*
X56850000Y-92350000D03*
X92350000Y-84500000D03*
X141550000Y-111000000D03*
D13*
X84250000Y-100900000D03*
D14*
X74000000Y-106600000D03*
D16*
X143950000Y-130000000D03*
D15*
X67050000Y-120150000D03*
D16*
X150750000Y-105500000D03*
D13*
X109600000Y-86050000D03*
X113000000Y-86000000D03*
X87059999Y-107785086D03*
D15*
X133600000Y-129900000D03*
D13*
X103900000Y-105600000D03*
X96750000Y-94450000D03*
X82100000Y-98600000D03*
D16*
X145300000Y-87700000D03*
D15*
X111050000Y-130200000D03*
X144050000Y-113250000D03*
D16*
X146400000Y-92100000D03*
D15*
X118850000Y-85850000D03*
D14*
X121750000Y-119100000D03*
D15*
X79750000Y-84200000D03*
D13*
X130950000Y-102060000D03*
D16*
X55750000Y-107250000D03*
X141100000Y-92050000D03*
D13*
X101850000Y-102550000D03*
D15*
X114950000Y-120750000D03*
D14*
X138050000Y-116900000D03*
D13*
X109850000Y-99550000D03*
D15*
X70250000Y-84200000D03*
D13*
X82400000Y-101000000D03*
X85423212Y-105426788D03*
D15*
X114850000Y-119350000D03*
D14*
X61000000Y-115900000D03*
D15*
X89100000Y-117700000D03*
X139650000Y-109850000D03*
D13*
X134850000Y-101300000D03*
D16*
X152450000Y-115050000D03*
X152400000Y-106650000D03*
D15*
X56000000Y-118150000D03*
X73400000Y-86050000D03*
X73800000Y-130600000D03*
D13*
X95700000Y-98400000D03*
D14*
X62900000Y-115700000D03*
X78650000Y-95240000D03*
D16*
X142150000Y-130000000D03*
D14*
X138100000Y-114350000D03*
D15*
X122750000Y-87100000D03*
X125200000Y-124600000D03*
D13*
X85550000Y-101300000D03*
D15*
X81800000Y-130700000D03*
D16*
X150650000Y-121100000D03*
D15*
X118400000Y-124950000D03*
D14*
X62900000Y-116700000D03*
D13*
X80940000Y-102350000D03*
D14*
X135700000Y-115900000D03*
X112350000Y-114250000D03*
D16*
X150700000Y-107200000D03*
X149950000Y-93900000D03*
D13*
X124547527Y-105410000D03*
D15*
X85850000Y-130750000D03*
D16*
X149950000Y-92100000D03*
D15*
X63800000Y-129950000D03*
D13*
X103850000Y-98500000D03*
X128550000Y-103650000D03*
D16*
X59250000Y-106450000D03*
D15*
X77800000Y-130650000D03*
D13*
X81400000Y-98600000D03*
X110250000Y-86050000D03*
D15*
X64000000Y-87850000D03*
D13*
X112180116Y-93230116D03*
D15*
X76550000Y-84200000D03*
X65250000Y-129950000D03*
D14*
X96350000Y-119950000D03*
X136608886Y-99044417D03*
D15*
X87850000Y-130800000D03*
D13*
X100500000Y-86050000D03*
D15*
X80700000Y-120800000D03*
D13*
X105250000Y-86000000D03*
D16*
X148150000Y-93900000D03*
D13*
X109850000Y-103750000D03*
D14*
X137900000Y-115800000D03*
D16*
X142900000Y-92050000D03*
D14*
X120850000Y-119200000D03*
X83450000Y-93050000D03*
D16*
X148950000Y-105500000D03*
D14*
X135675000Y-111200000D03*
D13*
X128950000Y-107000000D03*
D15*
X67250000Y-84200000D03*
D13*
X108540000Y-105625000D03*
X108800000Y-96600000D03*
D14*
X120144375Y-94234375D03*
D13*
X73200000Y-96200000D03*
D14*
X133600000Y-108050000D03*
D15*
X137400000Y-129900000D03*
D13*
X119612896Y-106485094D03*
D15*
X126500000Y-116550000D03*
X112450000Y-118200000D03*
X117200000Y-117400000D03*
D16*
X144700000Y-90250000D03*
X148200000Y-90300000D03*
D13*
X79600000Y-101000000D03*
D15*
X68650000Y-116700000D03*
X70200000Y-87850000D03*
X73450000Y-84200000D03*
D13*
X92509417Y-99404868D03*
D15*
X89100000Y-116650000D03*
D16*
X148950000Y-108650000D03*
D14*
X135500000Y-116950000D03*
D15*
X111100000Y-112400000D03*
D13*
X98800000Y-106600000D03*
D15*
X134900000Y-131000000D03*
D14*
X135550000Y-114450000D03*
D15*
X91800000Y-112400000D03*
X62400000Y-122550000D03*
D13*
X80250000Y-99500000D03*
D16*
X147200000Y-105500000D03*
D13*
X91500000Y-86000000D03*
D14*
X121800000Y-118150000D03*
D13*
X102750000Y-95450000D03*
D16*
X145750000Y-129950000D03*
D15*
X57050000Y-116175000D03*
D13*
X84650000Y-102300000D03*
D15*
X132350000Y-129900000D03*
X82850000Y-83500000D03*
X109800000Y-109950000D03*
X73350000Y-93450000D03*
D13*
X82050000Y-99450000D03*
X84200000Y-101900000D03*
D16*
X146400000Y-93900000D03*
D15*
X64350000Y-111100000D03*
D13*
X124650000Y-103450000D03*
D14*
X144850000Y-117550000D03*
D16*
X145400000Y-107100000D03*
D15*
X64000000Y-89400000D03*
X112350000Y-117250000D03*
D13*
X75849890Y-99855780D03*
D15*
X87850000Y-84100000D03*
X134900000Y-129900000D03*
D13*
X115400000Y-86000000D03*
X111350000Y-109600000D03*
X105750000Y-107650000D03*
D16*
X144600000Y-92100000D03*
D13*
X135200000Y-107550000D03*
X101874891Y-101496017D03*
D14*
X119900000Y-119150000D03*
D15*
X109100000Y-130200000D03*
D16*
X147200000Y-108650000D03*
D15*
X70200000Y-86050000D03*
D16*
X145300000Y-84150000D03*
D15*
X136200000Y-129900000D03*
X56900000Y-91200000D03*
D16*
X150000000Y-90300000D03*
D14*
X61000000Y-116750000D03*
X133400000Y-94850000D03*
D15*
X99857020Y-110390904D03*
X58400000Y-91150000D03*
D16*
X145300000Y-85900000D03*
D13*
X132060527Y-103850000D03*
X107999571Y-88228196D03*
X78650000Y-106400000D03*
D15*
X64000000Y-86050000D03*
D14*
X132200000Y-120450000D03*
D16*
X151750000Y-90300000D03*
D14*
X151300000Y-101700000D03*
D13*
X96917855Y-99959617D03*
D14*
X73650000Y-104079360D03*
D13*
X104550000Y-87950000D03*
D15*
X73850000Y-99160000D03*
D13*
X109650000Y-87950000D03*
D14*
%TO.N,VDDIOM_A*%
X124950000Y-112300000D03*
D13*
X132531759Y-106038029D03*
X130150000Y-106825000D03*
X130900000Y-103600000D03*
X133480000Y-107170000D03*
D14*
X133900000Y-109300000D03*
D13*
X130923212Y-107675000D03*
D14*
%TO.N,VDD_3V3_A*%
X137100000Y-96900000D03*
X143000000Y-99700000D03*
X137150000Y-102150000D03*
X137150000Y-103250000D03*
X123150000Y-125850000D03*
D13*
X122111555Y-104455780D03*
X130550000Y-94610000D03*
D14*
X125850000Y-120000000D03*
X147150000Y-99700000D03*
X145700000Y-99700000D03*
D13*
X124551703Y-96424696D03*
X122150000Y-98850000D03*
X133350000Y-98950000D03*
X128635086Y-98114914D03*
D14*
X127250000Y-117700000D03*
D13*
X122961336Y-103625312D03*
D14*
X137200000Y-95250000D03*
X144400000Y-99700000D03*
X124300000Y-84200000D03*
X148450000Y-99700000D03*
X141700000Y-99700000D03*
D13*
X124550000Y-106850000D03*
X122612710Y-120862710D03*
%TO.N,VDDPLLA_A*%
X123000000Y-102800000D03*
D14*
%TO.N,VDD_3V3*%
X102450000Y-130103768D03*
X124300000Y-85250000D03*
X103800000Y-130150000D03*
D15*
X86350000Y-121200000D03*
D14*
X98050000Y-120300000D03*
X106550000Y-130250000D03*
X95600000Y-113600000D03*
D15*
X104500000Y-120750000D03*
D14*
X98950000Y-112000000D03*
X105200000Y-130200000D03*
X99500000Y-127900000D03*
D15*
X99900000Y-122950000D03*
X88650000Y-121250000D03*
D14*
X100200000Y-129450000D03*
D15*
X127100000Y-126650000D03*
D14*
X89250000Y-120350000D03*
D15*
X87450000Y-121200000D03*
D13*
%TO.N,START_A*%
X118202297Y-118733105D03*
X112900000Y-127050000D03*
D15*
%TO.N,+5V*%
X133300000Y-118300000D03*
X133300000Y-113400000D03*
D16*
X89900000Y-88550000D03*
D14*
X57950000Y-118750000D03*
X65300000Y-112850000D03*
D15*
X79800000Y-118700000D03*
D14*
X128400000Y-120400000D03*
D15*
X78600000Y-118750000D03*
D13*
X121500000Y-114950000D03*
D16*
X144300000Y-123400000D03*
D14*
X63021942Y-120625054D03*
D16*
X124400000Y-90400000D03*
D15*
X113350000Y-122400000D03*
X140500000Y-111000000D03*
D13*
X120000000Y-115050000D03*
D14*
X119450000Y-124350000D03*
D15*
X68450000Y-119950000D03*
D14*
X60150000Y-109100000D03*
X126250000Y-121900000D03*
X58600000Y-116050000D03*
D13*
%TO.N,/MPUA/XIN32K_A*%
X119500000Y-102460000D03*
%TO.N,/MPUA/XOUT32K_A*%
X121350000Y-102050000D03*
%TO.N,/MPUA/DDR_CAL_A*%
X131750000Y-100450000D03*
%TO.N,DDR_VREF_A*%
X133300000Y-106000000D03*
%TO.N,VDDIOM_B*%
X70950000Y-99050000D03*
D15*
X55350000Y-114400000D03*
D13*
X72550000Y-95400000D03*
X77850000Y-99950000D03*
X80100000Y-97900000D03*
%TO.N,DDR_VREF_B*%
X75000000Y-97350000D03*
%TO.N,/MPUB/DDR_CAL_B*%
X75852769Y-102140000D03*
%TO.N,VDD_3V3_B*%
X63200000Y-111550000D03*
X68500000Y-104000000D03*
D14*
X61500000Y-98100000D03*
D13*
X69500000Y-94800000D03*
X69500000Y-95400000D03*
X69450000Y-96300000D03*
X61076000Y-111600000D03*
X83774146Y-106127748D03*
X82200000Y-104650000D03*
D14*
X66950000Y-113050000D03*
D13*
X69450000Y-96900000D03*
X83800000Y-96500000D03*
D14*
X66600000Y-98550000D03*
D13*
X79034637Y-104600173D03*
X75933318Y-103022242D03*
X66275000Y-116700000D03*
X86317770Y-98987942D03*
D14*
X121300000Y-83100000D03*
D13*
X76676787Y-106173213D03*
X85450000Y-103800000D03*
X84502798Y-99835301D03*
X69300000Y-104000000D03*
%TO.N,/MPUB/XIN32K_B*%
X87043239Y-99780000D03*
%TO.N,/MPUB/XOUT32K_B*%
X86250000Y-100650000D03*
%TO.N,VDD_CORE_B*%
X79088644Y-100087166D03*
X79960000Y-104103984D03*
X76650000Y-103000000D03*
X83850000Y-103000000D03*
D15*
X55600000Y-121000000D03*
D13*
%TO.N,VDDPLLA_B*%
X84632802Y-98984137D03*
%TO.N,/FPGA/LCD_ID*%
X102849962Y-98424954D03*
X116000000Y-88000000D03*
%TO.N,/FPGA/LCD_D22*%
X101500000Y-86000000D03*
X100783905Y-97427298D03*
%TO.N,SAMB_LCD_FPGA_TWD*%
X80300000Y-108000000D03*
X95900000Y-108500000D03*
%TO.N,/FPGA/LCD_D14*%
X106585876Y-85314124D03*
X106300000Y-92350000D03*
%TO.N,/FPGA/LCD_D10*%
X109010876Y-85689124D03*
X107825000Y-93292525D03*
%TO.N,/FPGA/JTAG_TDI*%
X107776624Y-96376624D03*
X113174753Y-91880897D03*
%TO.N,/FPGA/LCD_D2*%
X102850561Y-97675745D03*
X114000000Y-86000000D03*
%TO.N,/FPGA/LCD_HSYNC*%
X99850000Y-96550000D03*
X99000000Y-88000000D03*
%TO.N,/FPGA/LCD_D23*%
X101000000Y-88000000D03*
X100850000Y-95550000D03*
%TO.N,/FPGA/LCD_D20*%
X103765229Y-96517133D03*
X102500000Y-86000000D03*
%TO.N,/FPGA/LCD_VSYNC*%
X99500000Y-86000000D03*
X100822934Y-96521607D03*
%TO.N,/FPGA/JTAG_TCK*%
X112750000Y-92750000D03*
X109725000Y-95650000D03*
%TO.N,FPGA_BOOT*%
X100732140Y-109642860D03*
X133150000Y-122450000D03*
%TO.N,/FPGA/LCD_PCK*%
X104874596Y-89600000D03*
X100000000Y-85600000D03*
%TO.N,/FPGA/LCD_D11*%
X106850000Y-97550000D03*
X108500000Y-88000000D03*
%TO.N,/FPGA/LCD_D15*%
X106000000Y-88000000D03*
X105712247Y-98558147D03*
%TO.N,/FPGA/LCD_D7*%
X111000000Y-88000000D03*
X107850000Y-97500000D03*
%TO.N,/FPGA/JTAG_TDO*%
X111755850Y-92805850D03*
X109685086Y-97664914D03*
%TO.N,FPGA_EN*%
X99350000Y-109650000D03*
X140550000Y-121350000D03*
%TO.N,/FPGA/LCD_D19*%
X103500000Y-88000000D03*
X104832855Y-96446270D03*
%TO.N,/FPGA/RESET_N*%
X96350000Y-110050000D03*
X84900000Y-88250000D03*
%TO.N,/FPGA/LCD_D12*%
X106900000Y-96500000D03*
X107500000Y-88000000D03*
%TO.N,/FPGA/LCD_TWCK*%
X95000000Y-88000000D03*
X102009006Y-98418672D03*
%TO.N,/FPGA/LCD_D18*%
X104000000Y-86000000D03*
X104850000Y-98500000D03*
%TO.N,/FPGA/LCD_D21*%
X102881890Y-96527455D03*
X102000000Y-88000000D03*
D14*
%TO.N,VDD_CORE_A*%
X118970711Y-112179289D03*
D13*
X130961091Y-98861091D03*
X128500000Y-98800000D03*
X131005776Y-101249894D03*
X125550000Y-98700000D03*
%TO.N,/MPUB/SD_B_D1*%
X67150000Y-94800000D03*
X79850000Y-105400000D03*
%TO.N,/MPUB/SD_B_CLK*%
X56400000Y-96950000D03*
X79900000Y-104650000D03*
%TO.N,/MPUB/SD_B_D2*%
X81450000Y-107000000D03*
X67000000Y-102500000D03*
%TO.N,/MPUB/SD_B_CMD*%
X82200000Y-106200000D03*
X67050000Y-100400000D03*
%TO.N,/MPUB/SD_B_D0*%
X67100000Y-95850000D03*
X82200000Y-107050000D03*
%TO.N,/MPUB/SD_B_DET*%
X67100000Y-96900000D03*
X73900000Y-101000000D03*
%TO.N,/MPUB/SD_B_D3*%
X67050000Y-101450000D03*
X81050000Y-104450000D03*
%TO.N,/MPUA/SD_A_DET*%
X139500000Y-103750000D03*
X134050000Y-101650000D03*
%TO.N,/MPUA/SD_A_D0*%
X139500000Y-101600000D03*
X125750000Y-94590000D03*
%TO.N,/MPUA/SD_A_D3*%
X126950000Y-97250000D03*
X139550000Y-96950000D03*
%TO.N,/MPUA/SD_A_D2*%
X139550000Y-95950000D03*
X126550000Y-94590000D03*
%TO.N,/MPUA/SD_A_D1*%
X127700000Y-97200000D03*
X139500000Y-102700000D03*
%TO.N,/MPUA/SD_A_CMD*%
X139550000Y-98000000D03*
X126950000Y-96450000D03*
%TO.N,/MPUA/SD_A_CLK*%
X151400000Y-100600000D03*
X126960000Y-98040000D03*
%TO.N,Net-(Q1-D)*%
X127600000Y-122100000D03*
X124500000Y-118857700D03*
%TO.N,LPM_A*%
X130950000Y-123100000D03*
X131668833Y-97331874D03*
D15*
%TO.N,VLDO1B*%
X114900000Y-122750000D03*
X67150000Y-121700000D03*
D13*
%TO.N,NRST_B*%
X63101421Y-113155944D03*
X66900000Y-127050000D03*
X85450000Y-107050000D03*
%TO.N,SHDN_B*%
X62200000Y-107950000D03*
X83800000Y-94600000D03*
%TO.N,WAKE_UP_A*%
X124624923Y-117375726D03*
X124300000Y-107900000D03*
%TO.N,NRST_A*%
X122074479Y-94724479D03*
X123600000Y-120350000D03*
%TO.N,SHDN_A*%
X127000000Y-118450000D03*
X123750000Y-108425000D03*
%TO.N,WAKE_UP_B*%
X82929735Y-95047576D03*
X60675000Y-113173132D03*
%TO.N,/MPUA/XIN24M_A*%
X121206621Y-103693268D03*
%TO.N,/MPUA/XOUT24M_A*%
X120550000Y-102850000D03*
%TO.N,Net-(U4E-ADVREFP)*%
X132150000Y-94750000D03*
%TO.N,/MPUA/USB_RTUNE_A*%
X122900000Y-108425000D03*
%TO.N,/MPUB/USB_RTUNE_B*%
X85397641Y-94330000D03*
%TO.N,Net-(U2E-ADVREFP)*%
X74550000Y-108400000D03*
%TO.N,/MPUB/XIN24M_B*%
X86253146Y-99740658D03*
%TO.N,/MPUB/XOUT24M_B*%
X87800000Y-99740000D03*
%TO.N,SAMB_FPGA_RX*%
X99927319Y-103422382D03*
X84650000Y-107000000D03*
%TO.N,SAMB_LCD_FPGA_D23*%
X97848992Y-100530838D03*
X87050000Y-100600000D03*
%TO.N,SAMB_LCD_FPGA_D11*%
X97676448Y-105576651D03*
X87000000Y-106150000D03*
%TO.N,SAMB_LCD_FPGA_IRQ1*%
X85449262Y-104543490D03*
X99900000Y-104550000D03*
%TO.N,SAMB_LCD_FPGA_D21*%
X85450000Y-102200000D03*
X98847225Y-101546862D03*
%TO.N,SAMB_LCD_FPGA_TWCK*%
X99900000Y-105600000D03*
X79900000Y-106950000D03*
%TO.N,SAMB_LCD_FPGA_DEN*%
X99864153Y-100512088D03*
X85450000Y-100600000D03*
%TO.N,SAMB_LCD_FPGA_D5*%
X88050000Y-105150000D03*
X95838406Y-105177232D03*
%TO.N,SAMB_FPGA_TX*%
X84650000Y-106200000D03*
X100762321Y-103649227D03*
%TO.N,SAMB_LCD_FPGA_D15*%
X96816124Y-104263551D03*
X86300000Y-104600000D03*
%TO.N,SAMB_LCD_FPGA_HSYNC*%
X85450000Y-97400000D03*
X95750000Y-100050000D03*
%TO.N,SAMA_FPGA_TX*%
X123874574Y-95191714D03*
X111850000Y-107700000D03*
%TO.N,SAMA_LCD_FPGA_TWD*%
X111950000Y-95050000D03*
X127700000Y-95600000D03*
%TO.N,SAMA_LCD_FPGA_MPU_NRSTOUT*%
X125750000Y-105000000D03*
X112000000Y-104050000D03*
%TO.N,SAMA_LCD_FPGA_DEN*%
X108850000Y-102500000D03*
X123000000Y-101200000D03*
%TO.N,SAMA_LCD_FPGA_D21*%
X108850000Y-100550000D03*
X122150000Y-101250000D03*
%TO.N,SAMA_LCD_FPGA_TWCK*%
X110750000Y-95450000D03*
X127000000Y-95700000D03*
%TO.N,SAMA_LCD_FPGA_IRQ1*%
X122150000Y-98050000D03*
X107818314Y-98544408D03*
%TO.N,SAMA_RX*%
X123750737Y-97306511D03*
X104700000Y-115400000D03*
%TO.N,SAMA_LCD_FPGA_VSYNC*%
X108875000Y-101550000D03*
X119500000Y-101640000D03*
%TO.N,SAMA_FPGA_RX*%
X110879959Y-107718571D03*
X122950000Y-94860000D03*
%TO.N,SAMA_TX*%
X107650000Y-115950000D03*
X122950000Y-96400000D03*
%TO.N,SAMA_LCD_FPGA_D13*%
X108883885Y-97598071D03*
X121390269Y-97940000D03*
%TO.N,FPGA_INIT*%
X96650000Y-117300000D03*
X98850000Y-107550000D03*
%TO.N,FPGA_TX*%
X101818110Y-106522545D03*
X102800000Y-116750000D03*
%TO.N,FPGA_RX*%
X102800000Y-117500000D03*
X100850000Y-106550000D03*
D14*
%TO.N,/FPGA/WP_N*%
X107550000Y-112900000D03*
%TO.N,/FPGA/MISO_FL*%
X106850000Y-114800000D03*
D13*
%TO.N,/FPGA/SCLK_FL*%
X107879638Y-105638433D03*
%TO.N,/FPGA/HOLD_N*%
X106850000Y-108600000D03*
%TO.N,FPGAUT_TX*%
X137208499Y-119466401D03*
X107798766Y-107213612D03*
%TO.N,/FPGA/CLK*%
X103350000Y-109650000D03*
%TO.N,/FPGA/MOSI_FL*%
X105350000Y-109650000D03*
%TO.N,FPGAUT_RX*%
X137500000Y-119000000D03*
X106850000Y-107600000D03*
D14*
%TO.N,/FPGA/CS_FL*%
X110300000Y-116050000D03*
D13*
%TO.N,SAMB_BOOT*%
X76250000Y-93900000D03*
X96350000Y-111803532D03*
%TO.N,SAMA_BOOT*%
X98300000Y-111750000D03*
X131425000Y-108850000D03*
%TO.N,/MPUB/USB_SAMB_D-*%
X85349999Y-95893221D03*
%TO.N,/MPUB/USB_SAMB_D+*%
X85400000Y-95050000D03*
%TO.N,/MPUA/USB_SAMA_D+*%
X122900000Y-106900000D03*
X129901600Y-110050000D03*
%TO.N,/MPUA/USB_SAMA_D-*%
X129298400Y-110050000D03*
X122950000Y-106050000D03*
%TD*%
D17*
%TO.N,+5V*%
X123250000Y-90400000D02*
X124400000Y-90400000D01*
X121450000Y-88600000D02*
X123250000Y-90400000D01*
X119700000Y-83300000D02*
X121450000Y-85050000D01*
X89900000Y-88550000D02*
X89900000Y-84750000D01*
X121450000Y-85050000D02*
X121450000Y-88600000D01*
X91350000Y-83300000D02*
X119700000Y-83300000D01*
X89900000Y-84750000D02*
X91350000Y-83300000D01*
D18*
%TO.N,/FPGA/LCD_ID*%
X107625000Y-86475000D02*
X106800000Y-87300000D01*
X106350000Y-98592146D02*
X105908999Y-99033147D01*
X103458155Y-99033147D02*
X102849962Y-98424954D01*
X105908999Y-99033147D02*
X103458155Y-99033147D01*
X106800000Y-87300000D02*
X106800000Y-95928248D01*
X106800000Y-95928248D02*
X106350000Y-96378248D01*
X116000000Y-88000000D02*
X114475000Y-86475000D01*
X114475000Y-86475000D02*
X107625000Y-86475000D01*
X106350000Y-96378248D02*
X106350000Y-98592146D01*
%TO.N,/FPGA/LCD_D22*%
X97559734Y-93440266D02*
X97559734Y-90640266D01*
X101459736Y-96751468D02*
X101459736Y-95459736D01*
X99100000Y-94950000D02*
X98050000Y-93900000D01*
X98100000Y-90100000D02*
X99750000Y-90100000D01*
X101500000Y-88350000D02*
X101500000Y-86000000D01*
X100783905Y-97427298D02*
X100783905Y-97416095D01*
X101444398Y-96755602D02*
X101455602Y-96755602D01*
X101459736Y-95459736D02*
X100950000Y-94950000D01*
X100950000Y-94950000D02*
X99100000Y-94950000D01*
X101475000Y-86025000D02*
X101500000Y-86000000D01*
X98019468Y-93900000D02*
X97559734Y-93440266D01*
X100783905Y-97416095D02*
X101444398Y-96755602D01*
X99750000Y-90100000D02*
X101500000Y-88350000D01*
X98050000Y-93900000D02*
X98019468Y-93900000D01*
X97559734Y-90640266D02*
X98100000Y-90100000D01*
D19*
%TO.N,SAMB_LCD_FPGA_TWD*%
X80800000Y-108500000D02*
X95900000Y-108500000D01*
X80300000Y-108000000D02*
X80800000Y-108500000D01*
D18*
%TO.N,/FPGA/LCD_HSYNC*%
X99850000Y-96550000D02*
X99350000Y-96050000D01*
X96710246Y-87710000D02*
X96710246Y-87190000D01*
X96950246Y-86950000D02*
X97070246Y-86950000D01*
X97310246Y-87710000D02*
X97310246Y-88710000D01*
X98950000Y-87950000D02*
X99000000Y-88000000D01*
X98270246Y-87950000D02*
X98950000Y-87950000D01*
X98150246Y-87950000D02*
X98270246Y-87950000D01*
X95500000Y-95100000D02*
X95500000Y-88800000D01*
X99350000Y-96050000D02*
X96450000Y-96050000D01*
X97550246Y-88950000D02*
X97670246Y-88950000D01*
X96450000Y-96050000D02*
X95500000Y-95100000D01*
X97910246Y-88710000D02*
X97910246Y-88190000D01*
X97310246Y-87190000D02*
X97310246Y-87710000D01*
X95500000Y-88800000D02*
X96350000Y-87950000D01*
X96350000Y-87950000D02*
X96470246Y-87950000D01*
X96470246Y-87950000D02*
G75*
G03*
X96710200Y-87710000I-46J240000D01*
G01*
X96710246Y-87190000D02*
G75*
G02*
X96950246Y-86950046I239954J0D01*
G01*
X97670246Y-88950000D02*
G75*
G03*
X97910200Y-88710000I-46J240000D01*
G01*
X97910246Y-88190000D02*
G75*
G02*
X98150246Y-87950046I239954J0D01*
G01*
X97310246Y-88710000D02*
G75*
G03*
X97550246Y-88949954I239954J0D01*
G01*
X97070246Y-86950000D02*
G75*
G02*
X97310200Y-87190000I-46J-240000D01*
G01*
%TO.N,/FPGA/LCD_D23*%
X96200000Y-92599362D02*
X96200000Y-92479362D01*
X96960000Y-92839362D02*
X96440000Y-92839362D01*
X100600000Y-95300000D02*
X96744974Y-95300000D01*
X96960000Y-91639362D02*
X96440000Y-91639362D01*
X96440000Y-92239362D02*
X96960000Y-92239362D01*
X96440000Y-93439362D02*
X96960000Y-93439362D01*
X99350000Y-89650000D02*
X101000000Y-88000000D01*
X96200000Y-91399362D02*
X96200000Y-91279362D01*
X96200000Y-90194974D02*
X96744974Y-89650000D01*
X96200000Y-94329362D02*
X96200000Y-93679362D01*
X100850000Y-95550000D02*
X100600000Y-95300000D01*
X96918624Y-89650000D02*
X99350000Y-89650000D01*
X96744974Y-95300000D02*
X96200000Y-94755026D01*
X96200000Y-91279362D02*
X96200000Y-90194974D01*
X96200000Y-94755026D02*
X96200000Y-94329362D01*
X97200000Y-91999362D02*
X97200000Y-91879362D01*
X97200000Y-93199362D02*
X97200000Y-93079362D01*
X96744974Y-89650000D02*
X96918624Y-89650000D01*
X97200000Y-93079362D02*
G75*
G03*
X96960000Y-92839400I-240000J-38D01*
G01*
X96200000Y-92479362D02*
G75*
G02*
X96440000Y-92239400I240000J-38D01*
G01*
X96960000Y-92239362D02*
G75*
G03*
X97199962Y-91999362I0J239962D01*
G01*
X96960000Y-93439362D02*
G75*
G03*
X97199962Y-93199362I0J239962D01*
G01*
X96440000Y-92839362D02*
G75*
G02*
X96200038Y-92599362I0J239962D01*
G01*
X97200000Y-91879362D02*
G75*
G03*
X96960000Y-91639400I-240000J-38D01*
G01*
X96440000Y-91639362D02*
G75*
G02*
X96200038Y-91399362I0J239962D01*
G01*
X96200000Y-93679362D02*
G75*
G02*
X96440000Y-93439400I240000J-38D01*
G01*
%TO.N,/FPGA/LCD_D20*%
X100990000Y-91390000D02*
X100240000Y-91390000D01*
X100750000Y-91990000D02*
X101510000Y-91990000D01*
X102221752Y-94250000D02*
X102310876Y-94339124D01*
X102500000Y-86000000D02*
X102500000Y-88800000D01*
X100750000Y-92830000D02*
X100750000Y-92950000D01*
X101460571Y-89839429D02*
X100750000Y-90550000D01*
X100750000Y-92950000D02*
X100750000Y-93650000D01*
X100240000Y-91990000D02*
X100750000Y-91990000D01*
X102500000Y-88800000D02*
X101460571Y-89839429D01*
X100750000Y-93650000D02*
X101350000Y-94250000D01*
X102310876Y-94339124D02*
X103300000Y-95328248D01*
X101510000Y-91390000D02*
X100990000Y-91390000D01*
X100000000Y-91630000D02*
X100000000Y-91750000D01*
X101750000Y-92230000D02*
X101750000Y-92350000D01*
X101750000Y-91030000D02*
X101750000Y-91150000D01*
X101350000Y-94250000D02*
X102221752Y-94250000D01*
X103300000Y-95328248D02*
X103300000Y-96051904D01*
X101510000Y-92590000D02*
X100990000Y-92590000D01*
X100990000Y-90790000D02*
X101510000Y-90790000D01*
X103300000Y-96051904D02*
X103765229Y-96517133D01*
X101510000Y-90790000D02*
G75*
G02*
X101750000Y-91030000I0J-240000D01*
G01*
X100990000Y-92590000D02*
G75*
G03*
X100750000Y-92830000I0J-240000D01*
G01*
X100000000Y-91750000D02*
G75*
G03*
X100240000Y-91990000I240000J0D01*
G01*
X100750000Y-90550000D02*
G75*
G03*
X100990000Y-90790000I240000J0D01*
G01*
X101750000Y-92350000D02*
G75*
G02*
X101510000Y-92590000I-240000J0D01*
G01*
X100240000Y-91390000D02*
G75*
G03*
X100000000Y-91630000I0J-240000D01*
G01*
X101750000Y-91150000D02*
G75*
G02*
X101510000Y-91390000I-240000J0D01*
G01*
X101510000Y-91990000D02*
G75*
G02*
X101750000Y-92230000I0J-240000D01*
G01*
%TO.N,/FPGA/LCD_VSYNC*%
X95850000Y-90050000D02*
X96600000Y-89300000D01*
X100822934Y-96521607D02*
X100001327Y-95700000D01*
X100001327Y-95700000D02*
X96650000Y-95700000D01*
X95850000Y-94900000D02*
X95850000Y-90050000D01*
X98950000Y-89300000D02*
X99500000Y-88750000D01*
X96600000Y-89300000D02*
X98950000Y-89300000D01*
X99500000Y-88750000D02*
X99500000Y-86000000D01*
X96650000Y-95700000D02*
X95850000Y-94900000D01*
%TO.N,FPGA_BOOT*%
X100542860Y-109642860D02*
X100000000Y-109100000D01*
X126851041Y-123450000D02*
X127851041Y-122450000D01*
X97400000Y-118050000D02*
X102800000Y-123450000D01*
X127851041Y-122450000D02*
X133150000Y-122450000D01*
X97400000Y-110375736D02*
X97400000Y-118050000D01*
X98675736Y-109100000D02*
X97400000Y-110375736D01*
X100000000Y-109100000D02*
X98675736Y-109100000D01*
X100732140Y-109642860D02*
X100542860Y-109642860D01*
X102800000Y-123450000D02*
X126851041Y-123450000D01*
%TO.N,/FPGA/LCD_D11*%
X108350000Y-89325167D02*
X108500000Y-89325167D01*
X107375000Y-97354404D02*
X107375000Y-97450000D01*
X108740000Y-90525167D02*
X109260000Y-90525167D01*
X108500000Y-93765167D02*
X108500000Y-93885167D01*
X108500000Y-95085167D02*
X108500000Y-96300000D01*
X109500000Y-89565167D02*
X109500000Y-89685167D01*
X108200000Y-88875167D02*
X108200000Y-89175167D01*
X108500000Y-89325167D02*
X109260000Y-89325167D01*
X109260000Y-93525167D02*
X108740000Y-93525167D01*
X109260000Y-91125167D02*
X108740000Y-91125167D01*
X107375000Y-97303248D02*
X107375000Y-97354404D01*
X108500000Y-88000000D02*
X108500000Y-88575167D01*
X108740000Y-92925167D02*
X109260000Y-92925167D01*
X109260000Y-92325167D02*
X108740000Y-92325167D01*
X107775000Y-97025000D02*
X107653248Y-97025000D01*
X107375000Y-97450000D02*
X107275000Y-97550000D01*
X109260000Y-89925167D02*
X108740000Y-89925167D01*
X109500000Y-90765167D02*
X109500000Y-90885167D01*
X108500000Y-94935167D02*
X108500000Y-95085167D01*
X107653248Y-97025000D02*
X107375000Y-97303248D01*
X108950000Y-94335167D02*
X108950000Y-94485167D01*
X108500000Y-92565167D02*
X108500000Y-92685167D01*
X108500000Y-91365167D02*
X108500000Y-91485167D01*
X108500000Y-90165167D02*
X108500000Y-90285167D01*
X109500000Y-91965167D02*
X109500000Y-92085167D01*
X109500000Y-93165167D02*
X109500000Y-93285167D01*
X107275000Y-97550000D02*
X106850000Y-97550000D01*
X108740000Y-91725167D02*
X109260000Y-91725167D01*
X108500000Y-96300000D02*
X107775000Y-97025000D01*
X109500000Y-92085167D02*
G75*
G02*
X109260000Y-92325200I-240000J-33D01*
G01*
X108740000Y-92325167D02*
G75*
G03*
X108499967Y-92565167I0J-240033D01*
G01*
X108500000Y-88575167D02*
G75*
G02*
X108350000Y-88725200I-150000J-33D01*
G01*
X108500000Y-90285167D02*
G75*
G03*
X108740000Y-90525200I240000J-33D01*
G01*
X109500000Y-93285167D02*
G75*
G02*
X109260000Y-93525200I-240000J-33D01*
G01*
X108950000Y-94485167D02*
G75*
G02*
X108725000Y-94710200I-225000J-33D01*
G01*
X109260000Y-89325167D02*
G75*
G02*
X109500033Y-89565167I0J-240033D01*
G01*
X109500000Y-89685167D02*
G75*
G02*
X109260000Y-89925200I-240000J-33D01*
G01*
X108500000Y-91485167D02*
G75*
G03*
X108740000Y-91725200I240000J-33D01*
G01*
X108500000Y-92685167D02*
G75*
G03*
X108740000Y-92925200I240000J-33D01*
G01*
X108350000Y-88725167D02*
G75*
G03*
X108199967Y-88875167I0J-150033D01*
G01*
X109260000Y-90525167D02*
G75*
G02*
X109500033Y-90765167I0J-240033D01*
G01*
X108725000Y-94710167D02*
G75*
G03*
X108499967Y-94935167I0J-225033D01*
G01*
X108740000Y-93525167D02*
G75*
G03*
X108499967Y-93765167I0J-240033D01*
G01*
X109260000Y-91725167D02*
G75*
G02*
X109500033Y-91965167I0J-240033D01*
G01*
X108740000Y-89925167D02*
G75*
G03*
X108499967Y-90165167I0J-240033D01*
G01*
X108740000Y-91125167D02*
G75*
G03*
X108499967Y-91365167I0J-240033D01*
G01*
X109500000Y-90885167D02*
G75*
G02*
X109260000Y-91125200I-240000J-33D01*
G01*
X109260000Y-92925167D02*
G75*
G02*
X109500033Y-93165167I0J-240033D01*
G01*
X108500000Y-93885167D02*
G75*
G03*
X108725000Y-94110200I225000J-33D01*
G01*
X108200000Y-89175167D02*
G75*
G03*
X108350000Y-89325200I150000J-33D01*
G01*
X108725000Y-94110167D02*
G75*
G02*
X108950033Y-94335167I0J-225033D01*
G01*
%TO.N,/FPGA/LCD_D15*%
X106220000Y-89240468D02*
X106000000Y-89240468D01*
X106040000Y-94340000D02*
X106100000Y-94340000D01*
X106040000Y-93140000D02*
X106100000Y-93140000D01*
X105800000Y-92250000D02*
X105800000Y-92900000D01*
X106440000Y-88860468D02*
X106440000Y-89020468D01*
X106340000Y-93380000D02*
X106340000Y-93500000D01*
X106000000Y-89240468D02*
X105700000Y-89240468D01*
X105800000Y-93980000D02*
X105800000Y-94100000D01*
X105800000Y-97502855D02*
X105800000Y-98470394D01*
X106000000Y-90850000D02*
X105800000Y-91050000D01*
X106040000Y-91290000D02*
X106100000Y-91290000D01*
X106240000Y-95740000D02*
X106240000Y-95900000D01*
X106000000Y-90200468D02*
X106000000Y-90850000D01*
X106340000Y-94580000D02*
X106340000Y-94700000D01*
X106100000Y-94940000D02*
X106040000Y-94940000D01*
X105800000Y-95180000D02*
X105800000Y-95300000D01*
X105800000Y-98470394D02*
X105712247Y-98558147D01*
X105460000Y-89480468D02*
X105460000Y-89600468D01*
X105800000Y-96340000D02*
X105800000Y-96500000D01*
X106000000Y-90080468D02*
X106000000Y-90200468D01*
X106340000Y-91530000D02*
X106340000Y-91650000D01*
X106100000Y-91890000D02*
X106040000Y-91890000D01*
X105700000Y-89840468D02*
X105760000Y-89840468D01*
X106000000Y-88000000D02*
X106000000Y-88420468D01*
X106100000Y-93740000D02*
X106040000Y-93740000D01*
X105800000Y-96500000D02*
X105800000Y-97502855D01*
X105800000Y-92130000D02*
X105800000Y-92250000D01*
X106000000Y-88420468D02*
G75*
G03*
X106220000Y-88640500I220000J-32D01*
G01*
X105800000Y-92900000D02*
G75*
G03*
X106040000Y-93140000I240000J0D01*
G01*
X106340000Y-91650000D02*
G75*
G02*
X106100000Y-91890000I-240000J0D01*
G01*
X106440000Y-89020468D02*
G75*
G02*
X106220000Y-89240500I-220000J-32D01*
G01*
X106100000Y-91290000D02*
G75*
G02*
X106340000Y-91530000I0J-240000D01*
G01*
X106040000Y-94940000D02*
G75*
G03*
X105800000Y-95180000I0J-240000D01*
G01*
X106340000Y-93500000D02*
G75*
G02*
X106100000Y-93740000I-240000J0D01*
G01*
X106220000Y-88640468D02*
G75*
G02*
X106440032Y-88860468I0J-220032D01*
G01*
X106020000Y-95520000D02*
G75*
G02*
X106240000Y-95740000I0J-220000D01*
G01*
X105700000Y-89240468D02*
G75*
G03*
X105459968Y-89480468I0J-240032D01*
G01*
X105460000Y-89600468D02*
G75*
G03*
X105700000Y-89840500I240000J-32D01*
G01*
X106240000Y-95900000D02*
G75*
G02*
X106020000Y-96120000I-220000J0D01*
G01*
X106040000Y-93740000D02*
G75*
G03*
X105800000Y-93980000I0J-240000D01*
G01*
X105800000Y-95300000D02*
G75*
G03*
X106020000Y-95520000I220000J0D01*
G01*
X106100000Y-94340000D02*
G75*
G02*
X106340000Y-94580000I0J-240000D01*
G01*
X105760000Y-89840468D02*
G75*
G02*
X106000032Y-90080468I0J-240032D01*
G01*
X105800000Y-94100000D02*
G75*
G03*
X106040000Y-94340000I240000J0D01*
G01*
X106020000Y-96120000D02*
G75*
G03*
X105800000Y-96340000I0J-220000D01*
G01*
X106100000Y-93140000D02*
G75*
G02*
X106340000Y-93380000I0J-240000D01*
G01*
X106040000Y-91890000D02*
G75*
G03*
X105800000Y-92130000I0J-240000D01*
G01*
X106340000Y-94700000D02*
G75*
G02*
X106100000Y-94940000I-240000J0D01*
G01*
X105800000Y-91050000D02*
G75*
G03*
X106040000Y-91290000I240000J0D01*
G01*
%TO.N,/FPGA/LCD_D7*%
X108905835Y-97173071D02*
X108707844Y-97173071D01*
X111000000Y-92700000D02*
X109300000Y-94400000D01*
X111000000Y-92039483D02*
X111000000Y-92700000D01*
X110370952Y-91079483D02*
X111000000Y-91079483D01*
X111629054Y-91679483D02*
X111240000Y-91679483D01*
X111000000Y-91919483D02*
X111000000Y-92039483D01*
X110130952Y-90719483D02*
X110130952Y-90839483D01*
X111240000Y-89279483D02*
X110370958Y-89279483D01*
X111240000Y-88679483D02*
X111629042Y-88679483D01*
X111000000Y-88000000D02*
X111000000Y-88439483D01*
X111000000Y-91079483D02*
X111629054Y-91079483D01*
X108480915Y-97400000D02*
X107950000Y-97400000D01*
X111629042Y-89279483D02*
X111240000Y-89279483D01*
X110370958Y-89879483D02*
X111000000Y-89879483D01*
X109300000Y-94400000D02*
X109300000Y-94598547D01*
X109300000Y-96778905D02*
X108905835Y-97173071D01*
X111869048Y-90119483D02*
X111869048Y-90239483D01*
X107950000Y-97400000D02*
X107850000Y-97500000D01*
X111629048Y-90479483D02*
X111000000Y-90479483D01*
X111869042Y-88919483D02*
X111869042Y-89039483D01*
X110130958Y-89519483D02*
X110130958Y-89639483D01*
X111000000Y-90479483D02*
X110370952Y-90479483D01*
X109300000Y-94598547D02*
X109300000Y-96778905D01*
X111000000Y-89879483D02*
X111629048Y-89879483D01*
X111869054Y-91319483D02*
X111869054Y-91439483D01*
X108707844Y-97173071D02*
X108480915Y-97400000D01*
X111629054Y-91079483D02*
G75*
G02*
X111869117Y-91319483I46J-240017D01*
G01*
X111000000Y-88439483D02*
G75*
G03*
X111240000Y-88679500I240000J-17D01*
G01*
X110130958Y-89639483D02*
G75*
G03*
X110370958Y-89879542I240042J-17D01*
G01*
X111629042Y-88679483D02*
G75*
G02*
X111869017Y-88919483I-42J-240017D01*
G01*
X111869042Y-89039483D02*
G75*
G02*
X111629042Y-89279542I-240042J-17D01*
G01*
X110370958Y-89279483D02*
G75*
G03*
X110130983Y-89519483I42J-240017D01*
G01*
X111869048Y-90239483D02*
G75*
G02*
X111629048Y-90479548I-240048J-17D01*
G01*
X110130952Y-90839483D02*
G75*
G03*
X110370952Y-91079548I240048J-17D01*
G01*
X111629048Y-89879483D02*
G75*
G02*
X111869017Y-90119483I-48J-240017D01*
G01*
X110370952Y-90479483D02*
G75*
G03*
X110130983Y-90719483I48J-240017D01*
G01*
X111240000Y-91679483D02*
G75*
G03*
X110999983Y-91919483I0J-240017D01*
G01*
X111869054Y-91439483D02*
G75*
G02*
X111629054Y-91679454I-239954J-17D01*
G01*
%TO.N,FPGA_EN*%
X140550000Y-121350000D02*
X118750000Y-121350000D01*
X97800000Y-110550000D02*
X98700000Y-109650000D01*
X114100000Y-118700000D02*
X113600000Y-119200000D01*
X116100000Y-118700000D02*
X114100000Y-118700000D01*
X99050000Y-119200000D02*
X97800000Y-117950000D01*
X113600000Y-119200000D02*
X99050000Y-119200000D01*
X97800000Y-117950000D02*
X97800000Y-110550000D01*
X118750000Y-121350000D02*
X116100000Y-118700000D01*
X98700000Y-109650000D02*
X99350000Y-109650000D01*
%TO.N,/FPGA/LCD_D19*%
X104850000Y-96429125D02*
X104832855Y-96446270D01*
X102750000Y-93150000D02*
X102750000Y-93650000D01*
X102290000Y-90390000D02*
X102510000Y-90390000D01*
X103210000Y-90990000D02*
X102750000Y-90990000D01*
X102750000Y-91590000D02*
X103210000Y-91590000D01*
X102050000Y-90030000D02*
X102050000Y-90150000D01*
X102750000Y-93030000D02*
X102750000Y-93150000D01*
X104524835Y-94774297D02*
X104369272Y-94929861D01*
X104454125Y-95354125D02*
X104502434Y-95402434D01*
X103500000Y-88000000D02*
X103500000Y-88286575D01*
X102340000Y-91590000D02*
X102750000Y-91590000D01*
X102100000Y-91230000D02*
X102100000Y-91350000D01*
X104369271Y-95269271D02*
X104454125Y-95354125D01*
X103209619Y-94675303D02*
X103351040Y-94816724D01*
X103450000Y-91830000D02*
X103450000Y-91950000D01*
X103500000Y-88800000D02*
X102750000Y-89550000D01*
X102750000Y-93650000D02*
X103209619Y-94109619D01*
X104502434Y-95402434D02*
X104850000Y-95750000D01*
X102100000Y-92430000D02*
X102100000Y-92550000D01*
X104439983Y-94350033D02*
X104524835Y-94434885D01*
X102510000Y-89790000D02*
X102290000Y-89790000D01*
X103633883Y-94816724D02*
X103775304Y-94675302D01*
X104850000Y-95750000D02*
X104850000Y-96429125D01*
X103450000Y-90630000D02*
X103450000Y-90750000D01*
X102340000Y-92790000D02*
X102510000Y-92790000D01*
X103775304Y-94675302D02*
X104100571Y-94350032D01*
X102750000Y-90990000D02*
X102340000Y-90990000D01*
X103500000Y-88286575D02*
X103500000Y-88800000D01*
X102510000Y-90390000D02*
X103210000Y-90390000D01*
X102750000Y-92190000D02*
X102340000Y-92190000D01*
X103210000Y-92190000D02*
X102750000Y-92190000D01*
X103210000Y-91590000D02*
G75*
G02*
X103450000Y-91830000I0J-240000D01*
G01*
X102100000Y-91350000D02*
G75*
G03*
X102340000Y-91590000I240000J0D01*
G01*
X102290000Y-89790000D02*
G75*
G03*
X102050000Y-90030000I0J-240000D01*
G01*
X102340000Y-92190000D02*
G75*
G03*
X102100000Y-92430000I0J-240000D01*
G01*
X103209618Y-94109620D02*
G75*
G02*
X103209578Y-94392420I-141418J-141380D01*
G01*
X102050000Y-90150000D02*
G75*
G03*
X102290000Y-90390000I240000J0D01*
G01*
X104524835Y-94434885D02*
G75*
G02*
X104524844Y-94774306I-169735J-169715D01*
G01*
X103351040Y-94816724D02*
G75*
G03*
X103633883Y-94816724I141422J141424D01*
G01*
X103209620Y-94392462D02*
G75*
G03*
X103209602Y-94675320I141380J-141438D01*
G01*
X102750000Y-89550000D02*
G75*
G02*
X102510000Y-89790000I-240000J0D01*
G01*
X103450000Y-90750000D02*
G75*
G02*
X103210000Y-90990000I-240000J0D01*
G01*
X103450000Y-91950000D02*
G75*
G02*
X103210000Y-92190000I-240000J0D01*
G01*
X103210000Y-90390000D02*
G75*
G02*
X103450000Y-90630000I0J-240000D01*
G01*
X102100000Y-92550000D02*
G75*
G03*
X102340000Y-92790000I240000J0D01*
G01*
X104100572Y-94350033D02*
G75*
G02*
X104440006Y-94350010I169728J-169667D01*
G01*
X104369272Y-94929861D02*
G75*
G03*
X104369238Y-95269304I169728J-169739D01*
G01*
X102340000Y-90990000D02*
G75*
G03*
X102100000Y-91230000I0J-240000D01*
G01*
X102510000Y-92790000D02*
G75*
G02*
X102750000Y-93030000I0J-240000D01*
G01*
%TO.N,/FPGA/RESET_N*%
X99500000Y-107100000D02*
X102350000Y-104250000D01*
X96350000Y-109350000D02*
X98600000Y-107100000D01*
X84900000Y-91200000D02*
X84900000Y-88250000D01*
X102350000Y-100150000D02*
X100175000Y-97975000D01*
X100175000Y-97975000D02*
X91675000Y-97975000D01*
X91675000Y-97975000D02*
X84900000Y-91200000D01*
X98600000Y-107100000D02*
X99500000Y-107100000D01*
X102350000Y-104250000D02*
X102350000Y-100150000D01*
X96350000Y-110050000D02*
X96350000Y-109350000D01*
%TO.N,/FPGA/LCD_D12*%
X107350000Y-96050000D02*
X107261408Y-96138592D01*
X107890000Y-90396038D02*
X107590000Y-90396038D01*
X108130000Y-91236038D02*
X108130000Y-91356038D01*
X107350000Y-90636038D02*
X107350000Y-90756038D01*
X107830000Y-88836038D02*
X107830000Y-88956038D01*
X108130000Y-90036038D02*
X108130000Y-90156038D01*
X107590000Y-92196038D02*
X107890000Y-92196038D01*
X108130000Y-94286038D02*
X108130000Y-94406038D01*
X107350000Y-88150000D02*
X107350000Y-88356038D01*
X107590000Y-89796038D02*
X107890000Y-89796038D01*
X107350000Y-89436038D02*
X107350000Y-89556038D01*
X107261408Y-96138592D02*
X106900000Y-96500000D01*
X107890000Y-92796038D02*
X107590000Y-92796038D01*
X107350000Y-95006038D02*
X107350000Y-96050000D01*
X107350000Y-94886038D02*
X107350000Y-95006038D01*
X107890000Y-94646038D02*
X107590000Y-94646038D01*
X107350000Y-91836038D02*
X107350000Y-91956038D01*
X107350000Y-93156038D02*
X107350000Y-93806038D01*
X107500000Y-88000000D02*
X107350000Y-88150000D01*
X107590000Y-94046038D02*
X107890000Y-94046038D01*
X108130000Y-92436038D02*
X108130000Y-92556038D01*
X107350000Y-93036038D02*
X107350000Y-93156038D01*
X107890000Y-91596038D02*
X107590000Y-91596038D01*
X107590000Y-90996038D02*
X107890000Y-90996038D01*
X108130000Y-94406038D02*
G75*
G02*
X107890000Y-94646000I-240000J38D01*
G01*
X108130000Y-92556038D02*
G75*
G02*
X107890000Y-92796000I-240000J38D01*
G01*
X107890000Y-92196038D02*
G75*
G02*
X108129962Y-92436038I0J-239962D01*
G01*
X107350000Y-89556038D02*
G75*
G03*
X107590000Y-89796000I240000J38D01*
G01*
X107590000Y-94646038D02*
G75*
G03*
X107350038Y-94886038I0J-239962D01*
G01*
X108130000Y-90156038D02*
G75*
G02*
X107890000Y-90396000I-240000J38D01*
G01*
X107590000Y-90396038D02*
G75*
G03*
X107350038Y-90636038I0J-239962D01*
G01*
X107350000Y-93806038D02*
G75*
G03*
X107590000Y-94046000I240000J38D01*
G01*
X107890000Y-89796038D02*
G75*
G02*
X108129962Y-90036038I0J-239962D01*
G01*
X107590000Y-91596038D02*
G75*
G03*
X107350038Y-91836038I0J-239962D01*
G01*
X107350000Y-91956038D02*
G75*
G03*
X107590000Y-92196000I240000J38D01*
G01*
X107350000Y-90756038D02*
G75*
G03*
X107590000Y-90996000I240000J38D01*
G01*
X107590000Y-88596038D02*
G75*
G02*
X107829962Y-88836038I0J-239962D01*
G01*
X107890000Y-90996038D02*
G75*
G02*
X108129962Y-91236038I0J-239962D01*
G01*
X107590000Y-92796038D02*
G75*
G03*
X107350038Y-93036038I0J-239962D01*
G01*
X107590000Y-89196038D02*
G75*
G03*
X107350038Y-89436038I0J-239962D01*
G01*
X107890000Y-94046038D02*
G75*
G02*
X108129962Y-94286038I0J-239962D01*
G01*
X107830000Y-88956038D02*
G75*
G02*
X107590000Y-89196000I-240000J38D01*
G01*
X108130000Y-91356038D02*
G75*
G02*
X107890000Y-91596000I-240000J38D01*
G01*
X107350000Y-88356038D02*
G75*
G03*
X107590000Y-88596000I240000J38D01*
G01*
%TO.N,/FPGA/LCD_TWCK*%
X99875000Y-97125000D02*
X101168672Y-98418672D01*
X95000000Y-95900000D02*
X96225000Y-97125000D01*
X96225000Y-97125000D02*
X99875000Y-97125000D01*
X95000000Y-88000000D02*
X95000000Y-95900000D01*
X101168672Y-98418672D02*
X102009006Y-98418672D01*
%TO.N,/FPGA/LCD_D18*%
X104975927Y-90610000D02*
X104975927Y-90490000D01*
X104482651Y-93938525D02*
X104397796Y-93853670D01*
X105110588Y-93650000D02*
X104822061Y-93938524D01*
X104850000Y-98500000D02*
X105450000Y-97900000D01*
X104925294Y-92138232D02*
X104601468Y-92462057D01*
X104686320Y-93225731D02*
X104856025Y-93056026D01*
X104177205Y-92377205D02*
X104000000Y-92200000D01*
X105171094Y-95519419D02*
X105171094Y-95198325D01*
X105450000Y-97900000D02*
X105450000Y-97748325D01*
X104000000Y-90010000D02*
X104000000Y-89890000D01*
X104856025Y-93056026D02*
X104856028Y-93056028D01*
X105450000Y-94919419D02*
X105450000Y-94598325D01*
X105450000Y-94598325D02*
X105450000Y-93650000D01*
X105450000Y-97748325D02*
X105450000Y-95798325D01*
X104000000Y-92200000D02*
X104000000Y-91550000D01*
X104000000Y-90850000D02*
X104735927Y-90850000D01*
X103900000Y-90850000D02*
X104000000Y-90850000D01*
X104397796Y-93514258D02*
X104686320Y-93225731D01*
X104000000Y-89890000D02*
X104000000Y-87393957D01*
X103800000Y-91350000D02*
X103800000Y-90950000D01*
X104000000Y-87393957D02*
X104000000Y-86000000D01*
X104262056Y-92462057D02*
X104177205Y-92377205D01*
X104856028Y-93056028D02*
X105349559Y-92562496D01*
X105349559Y-92223085D02*
X105264706Y-92138232D01*
X104735927Y-90250000D02*
X104240000Y-90250000D01*
X105310547Y-95658872D02*
G75*
G02*
X105171028Y-95519419I-47J139472D01*
G01*
X105310547Y-95058872D02*
G75*
G03*
X105449972Y-94919419I-47J139472D01*
G01*
X104822061Y-93938524D02*
G75*
G02*
X104482696Y-93938480I-169661J169724D01*
G01*
X104735927Y-90850000D02*
G75*
G03*
X104975900Y-90610000I-27J240000D01*
G01*
X104397796Y-93853670D02*
G75*
G02*
X104397832Y-93514294I169704J169670D01*
G01*
X104000000Y-91550000D02*
G75*
G03*
X103900000Y-91450000I-100000J0D01*
G01*
X104601468Y-92462057D02*
G75*
G02*
X104262056Y-92462057I-169706J169704D01*
G01*
X103800000Y-90950000D02*
G75*
G02*
X103900000Y-90850000I100000J0D01*
G01*
X105450000Y-95798325D02*
G75*
G03*
X105310547Y-95658800I-139500J25D01*
G01*
X105264706Y-92138232D02*
G75*
G03*
X104925294Y-92138232I-169706J-169704D01*
G01*
X103900000Y-91450000D02*
G75*
G02*
X103800000Y-91350000I0J100000D01*
G01*
X104975927Y-90490000D02*
G75*
G03*
X104735927Y-90249973I-240027J0D01*
G01*
X105449999Y-93650001D02*
G75*
G03*
X105110589Y-93650001I-169705J-169700D01*
G01*
X104240000Y-90250000D02*
G75*
G02*
X104000000Y-90010000I0J240000D01*
G01*
X105171094Y-95198325D02*
G75*
G02*
X105310547Y-95058894I139406J25D01*
G01*
X105349559Y-92562496D02*
G75*
G03*
X105349549Y-92223095I-169659J169696D01*
G01*
%TO.N,/FPGA/LCD_D21*%
X99410000Y-93039552D02*
X98890000Y-93039552D01*
X97950000Y-92079552D02*
X97950000Y-92199552D01*
X98650000Y-94005026D02*
X99244974Y-94600000D01*
X98890000Y-91239552D02*
X99410000Y-91239552D01*
X102000000Y-88000000D02*
X102000000Y-88344974D01*
X99244974Y-94600000D02*
X99355704Y-94600000D01*
X98890000Y-91839552D02*
X98190000Y-91839552D01*
X99650000Y-91479552D02*
X99650000Y-91599552D01*
X98650000Y-90850000D02*
X98650000Y-90999552D01*
X99650000Y-92679552D02*
X99650000Y-92799552D01*
X98650000Y-93399552D02*
X98650000Y-94005026D01*
X101094975Y-94600000D02*
X102881890Y-96386915D01*
X99894975Y-90450000D02*
X99050000Y-90450000D01*
X99355704Y-94600000D02*
X101094975Y-94600000D01*
X98190000Y-92439552D02*
X98650000Y-92439552D01*
X98650000Y-92439552D02*
X99410000Y-92439552D01*
X102000000Y-88344974D02*
X99894975Y-90450000D01*
X99410000Y-91839552D02*
X98890000Y-91839552D01*
X98650000Y-93279552D02*
X98650000Y-93399552D01*
X99050000Y-90450000D02*
X98650000Y-90850000D01*
X102881890Y-96386915D02*
X102881890Y-96527455D01*
X99410000Y-91239552D02*
G75*
G02*
X99650048Y-91479552I0J-240048D01*
G01*
X98650000Y-90999552D02*
G75*
G03*
X98890000Y-91239600I240000J-48D01*
G01*
X97950000Y-92199552D02*
G75*
G03*
X98190000Y-92439600I240000J-48D01*
G01*
X99410000Y-92439552D02*
G75*
G02*
X99650048Y-92679552I0J-240048D01*
G01*
X99650000Y-92799552D02*
G75*
G02*
X99410000Y-93039600I-240000J-48D01*
G01*
X98890000Y-93039552D02*
G75*
G03*
X98649952Y-93279552I0J-240048D01*
G01*
X98190000Y-91839552D02*
G75*
G03*
X97949952Y-92079552I0J-240048D01*
G01*
X99650000Y-91599552D02*
G75*
G02*
X99410000Y-91839600I-240000J-48D01*
G01*
D19*
%TO.N,/MPUB/SD_B_D1*%
X63550000Y-94800000D02*
X62850000Y-95500000D01*
X79850000Y-103350000D02*
X80370000Y-103870000D01*
X62850000Y-95500000D02*
X62850000Y-101050000D01*
X76660468Y-103569360D02*
X76879828Y-103350000D01*
X80370000Y-103870000D02*
X80370000Y-104880000D01*
X67150000Y-94800000D02*
X63550000Y-94800000D01*
X80370000Y-104880000D02*
X79850000Y-105400000D01*
X76879828Y-103350000D02*
X79850000Y-103350000D01*
X65369360Y-103569360D02*
X76660468Y-103569360D01*
X62850000Y-101050000D02*
X65369360Y-103569360D01*
%TO.N,/MPUB/SD_B_CLK*%
X79500000Y-105050000D02*
X79900000Y-104650000D01*
X58968558Y-97193757D02*
X58600861Y-97561451D01*
X61401000Y-100700999D02*
X61938400Y-100163597D01*
X61429285Y-99315071D02*
X61514137Y-99399923D01*
X59703946Y-99003945D02*
X60241346Y-98466543D01*
X57893754Y-98607968D02*
X57978606Y-98692820D01*
X62560625Y-101860625D02*
X65750000Y-105050000D01*
X60439335Y-101153549D02*
X60524187Y-101238401D01*
X60976736Y-100276737D02*
X60439335Y-100814138D01*
X62079822Y-101379822D02*
X62560625Y-101860625D01*
X59732231Y-97618017D02*
X59817083Y-97702869D01*
X61514137Y-99739335D02*
X60976736Y-100276737D01*
X62362664Y-100587862D02*
X61994969Y-100955558D01*
X60128209Y-99428210D02*
X59590808Y-99965611D01*
X57650000Y-96950000D02*
X57837188Y-97137188D01*
X58600861Y-97561451D02*
X57893754Y-98268557D01*
X65750000Y-105050000D02*
X79500000Y-105050000D01*
X58318018Y-98692820D02*
X58855419Y-98155418D01*
X61994968Y-101294968D02*
X62079822Y-101379822D01*
X59817083Y-98042281D02*
X59279682Y-98579683D01*
X58855419Y-98155418D02*
X59392819Y-97618016D01*
X60015072Y-100389874D02*
X60552473Y-99852472D01*
X56400000Y-96950000D02*
X57650000Y-96950000D01*
X58176600Y-97137189D02*
X58544294Y-96769492D01*
X60863599Y-101238401D02*
X61401000Y-100700999D01*
X59279682Y-98579683D02*
X58742281Y-99117084D01*
X60552473Y-99852472D02*
X61089873Y-99315070D01*
X60665610Y-98890808D02*
X60128209Y-99428210D01*
X60580758Y-98466544D02*
X60665610Y-98551396D01*
X59166545Y-99541347D02*
X59703946Y-99003945D01*
X58883706Y-96769493D02*
X58968558Y-96854345D01*
X62277812Y-100163598D02*
X62362664Y-100248450D01*
X59590808Y-100305022D02*
X59675660Y-100389874D01*
X58742281Y-99456495D02*
X58827133Y-99541347D01*
X57978606Y-98692820D02*
G75*
G03*
X58318018Y-98692820I169706J169704D01*
G01*
X57837188Y-97137188D02*
G75*
G03*
X58176605Y-97137194I169712J169688D01*
G01*
X59590808Y-99965611D02*
G75*
G03*
X59590825Y-100305005I169692J-169689D01*
G01*
X61514136Y-99399924D02*
G75*
G02*
X61514107Y-99739305I-169736J-169676D01*
G01*
X61994969Y-100955558D02*
G75*
G03*
X61994932Y-101295004I169731J-169742D01*
G01*
X60241346Y-98466543D02*
G75*
G02*
X60580806Y-98466496I169754J-169757D01*
G01*
X60439335Y-100814138D02*
G75*
G03*
X60439379Y-101153505I169665J-169662D01*
G01*
X61938400Y-100163597D02*
G75*
G02*
X62277806Y-100163604I169700J-169703D01*
G01*
X58968558Y-96854345D02*
G75*
G02*
X58968607Y-97193806I-169658J-169755D01*
G01*
X59392819Y-97618016D02*
G75*
G02*
X59732206Y-97618042I169681J-169684D01*
G01*
X62362663Y-100248451D02*
G75*
G02*
X62362707Y-100587905I-169663J-169749D01*
G01*
X59817082Y-97702870D02*
G75*
G02*
X59817107Y-98042305I-169682J-169730D01*
G01*
X58742282Y-99117085D02*
G75*
G03*
X58742271Y-99456505I169718J-169715D01*
G01*
X60665609Y-98551397D02*
G75*
G02*
X60665607Y-98890805I-169709J-169703D01*
G01*
X58827133Y-99541347D02*
G75*
G03*
X59166545Y-99541347I169706J169704D01*
G01*
X60524187Y-101238401D02*
G75*
G03*
X60863599Y-101238401I169706J169704D01*
G01*
X58544295Y-96769493D02*
G75*
G02*
X58883706Y-96769493I169705J-169707D01*
G01*
X61089873Y-99315070D02*
G75*
G02*
X61429306Y-99315050I169727J-169730D01*
G01*
X59675660Y-100389874D02*
G75*
G03*
X60015072Y-100389874I169706J169704D01*
G01*
X57893755Y-98268558D02*
G75*
G03*
X57893717Y-98608005I169745J-169742D01*
G01*
%TO.N,/MPUB/SD_B_D2*%
X73386148Y-103300000D02*
X73506148Y-103300000D01*
X67986148Y-101800000D02*
X68106148Y-101800000D01*
X71346148Y-103060000D02*
X71346148Y-102550000D01*
X71946148Y-102040000D02*
X71946148Y-102550000D01*
X71346148Y-102550000D02*
X71346148Y-102040000D01*
X68346148Y-102310000D02*
X68346148Y-103060000D01*
X69546148Y-102040000D02*
X69546148Y-102550000D01*
X72786148Y-101800000D02*
X72906148Y-101800000D01*
X79850000Y-102550000D02*
X81080000Y-103780000D01*
X73986148Y-102550000D02*
X74106148Y-102550000D01*
X68946148Y-103060000D02*
X68946148Y-102550000D01*
X73146148Y-102550000D02*
X73146148Y-103060000D01*
X67000000Y-102500000D02*
X67050000Y-102550000D01*
X73746148Y-103060000D02*
X73746148Y-102790000D01*
X69186148Y-101800000D02*
X69306148Y-101800000D01*
X70746148Y-102040000D02*
X70746148Y-102550000D01*
X80640000Y-105021838D02*
X81450000Y-105831838D01*
X70146148Y-103060000D02*
X70146148Y-102550000D01*
X73146148Y-102040000D02*
X73146148Y-102550000D01*
X70386148Y-101800000D02*
X70506148Y-101800000D01*
X80640000Y-104220000D02*
X80640000Y-105021838D01*
X67050000Y-102550000D02*
X67506148Y-102550000D01*
X71586148Y-101800000D02*
X71706148Y-101800000D01*
X72186148Y-103300000D02*
X72306148Y-103300000D01*
X67746148Y-102310000D02*
X67746148Y-102040000D01*
X70146148Y-102550000D02*
X70146148Y-102040000D01*
X68346148Y-102040000D02*
X68346148Y-102310000D01*
X70746148Y-102550000D02*
X70746148Y-103060000D01*
X69786148Y-103300000D02*
X69906148Y-103300000D01*
X69546148Y-102550000D02*
X69546148Y-103060000D01*
X68586148Y-103300000D02*
X68706148Y-103300000D01*
X70986148Y-103300000D02*
X71106148Y-103300000D01*
X81080000Y-103780000D02*
X80640000Y-104220000D01*
X72546148Y-103060000D02*
X72546148Y-102550000D01*
X71946148Y-102550000D02*
X71946148Y-103060000D01*
X81450000Y-105831838D02*
X81450000Y-107000000D01*
X74106148Y-102550000D02*
X74400000Y-102550000D01*
X68946148Y-102550000D02*
X68946148Y-102040000D01*
X74400000Y-102550000D02*
X79850000Y-102550000D01*
X72546148Y-102550000D02*
X72546148Y-102040000D01*
X67506148Y-102550000D02*
G75*
G03*
X67746100Y-102310000I-48J240000D01*
G01*
X70146148Y-102040000D02*
G75*
G02*
X70386148Y-101800048I239952J0D01*
G01*
X70746148Y-103060000D02*
G75*
G03*
X70986148Y-103299952I239952J0D01*
G01*
X71346148Y-102040000D02*
G75*
G02*
X71586148Y-101800048I239952J0D01*
G01*
X72546148Y-102040000D02*
G75*
G02*
X72786148Y-101800048I239952J0D01*
G01*
X69906148Y-103300000D02*
G75*
G03*
X70146100Y-103060000I-48J240000D01*
G01*
X73746148Y-102790000D02*
G75*
G02*
X73986148Y-102550048I239952J0D01*
G01*
X68946148Y-102040000D02*
G75*
G02*
X69186148Y-101800048I239952J0D01*
G01*
X68346148Y-103060000D02*
G75*
G03*
X68586148Y-103299952I239952J0D01*
G01*
X71106148Y-103300000D02*
G75*
G03*
X71346100Y-103060000I-48J240000D01*
G01*
X73506148Y-103300000D02*
G75*
G03*
X73746100Y-103060000I-48J240000D01*
G01*
X69546148Y-103060000D02*
G75*
G03*
X69786148Y-103299952I239952J0D01*
G01*
X68106148Y-101800000D02*
G75*
G02*
X68346100Y-102040000I-48J-240000D01*
G01*
X68706148Y-103300000D02*
G75*
G03*
X68946100Y-103060000I-48J240000D01*
G01*
X72306148Y-103300000D02*
G75*
G03*
X72546100Y-103060000I-48J240000D01*
G01*
X73146148Y-103060000D02*
G75*
G03*
X73386148Y-103299952I239952J0D01*
G01*
X72906148Y-101800000D02*
G75*
G02*
X73146100Y-102040000I-48J-240000D01*
G01*
X71946148Y-103060000D02*
G75*
G03*
X72186148Y-103299952I239952J0D01*
G01*
X70506148Y-101800000D02*
G75*
G02*
X70746100Y-102040000I-48J-240000D01*
G01*
X69306148Y-101800000D02*
G75*
G02*
X69546100Y-102040000I-48J-240000D01*
G01*
X71706148Y-101800000D02*
G75*
G02*
X71946100Y-102040000I-48J-240000D01*
G01*
X67746148Y-102040000D02*
G75*
G02*
X67986148Y-101800048I239952J0D01*
G01*
%TO.N,/MPUB/SD_B_CMD*%
X75374295Y-99120000D02*
X75494295Y-99120000D01*
X67050000Y-100400000D02*
X67050000Y-99300000D01*
X77774295Y-99120000D02*
X77894295Y-99120000D01*
X74774295Y-97980000D02*
X74894295Y-97980000D01*
X78134295Y-98880000D02*
X78134295Y-98550000D01*
X77534295Y-98220000D02*
X77534295Y-98550000D01*
X81700000Y-105700000D02*
X81700000Y-99850000D01*
X82200000Y-106200000D02*
X81700000Y-105700000D01*
X76334295Y-98550000D02*
X76334295Y-98880000D01*
X76334295Y-98220000D02*
X76334295Y-98550000D01*
X75734295Y-98550000D02*
X75734295Y-98220000D01*
X80400000Y-98550000D02*
X80163258Y-98550000D01*
X75734295Y-98880000D02*
X75734295Y-98550000D01*
X76934295Y-98550000D02*
X76934295Y-98220000D01*
X76934295Y-98880000D02*
X76934295Y-98550000D01*
X79334295Y-98880000D02*
X79334295Y-98790000D01*
X67050000Y-99300000D02*
X67800000Y-98550000D01*
X77534295Y-98550000D02*
X77534295Y-98880000D01*
X78374295Y-97980000D02*
X78494295Y-97980000D01*
X74534295Y-98310000D02*
X74534295Y-98220000D01*
X75134295Y-98310000D02*
X75134295Y-98880000D01*
X76574295Y-99120000D02*
X76694295Y-99120000D01*
X81700000Y-99850000D02*
X80400000Y-98550000D01*
X67800000Y-98550000D02*
X74294295Y-98550000D01*
X78734295Y-98220000D02*
X78734295Y-98550000D01*
X78974295Y-99120000D02*
X79094295Y-99120000D01*
X77174295Y-97980000D02*
X77294295Y-97980000D01*
X75974295Y-97980000D02*
X76094295Y-97980000D01*
X78734295Y-98550000D02*
X78734295Y-98880000D01*
X79574295Y-98550000D02*
X79694295Y-98550000D01*
X78134295Y-98550000D02*
X78134295Y-98220000D01*
X75134295Y-98220000D02*
X75134295Y-98310000D01*
X79694295Y-98550000D02*
X80163258Y-98550000D01*
X79094295Y-99120000D02*
G75*
G03*
X79334300Y-98880000I5J240000D01*
G01*
X79334295Y-98790000D02*
G75*
G02*
X79574295Y-98549995I240005J0D01*
G01*
X78734295Y-98880000D02*
G75*
G03*
X78974295Y-99120005I240005J0D01*
G01*
X74534295Y-98220000D02*
G75*
G02*
X74774295Y-97979995I240005J0D01*
G01*
X76694295Y-99120000D02*
G75*
G03*
X76934300Y-98880000I5J240000D01*
G01*
X75734295Y-98220000D02*
G75*
G02*
X75974295Y-97979995I240005J0D01*
G01*
X78134295Y-98220000D02*
G75*
G02*
X78374295Y-97979995I240005J0D01*
G01*
X77294295Y-97980000D02*
G75*
G02*
X77534300Y-98220000I5J-240000D01*
G01*
X75134295Y-98880000D02*
G75*
G03*
X75374295Y-99120005I240005J0D01*
G01*
X76934295Y-98220000D02*
G75*
G02*
X77174295Y-97979995I240005J0D01*
G01*
X74294295Y-98550000D02*
G75*
G03*
X74534300Y-98310000I5J240000D01*
G01*
X76094295Y-97980000D02*
G75*
G02*
X76334300Y-98220000I5J-240000D01*
G01*
X77534295Y-98880000D02*
G75*
G03*
X77774295Y-99120005I240005J0D01*
G01*
X75494295Y-99120000D02*
G75*
G03*
X75734300Y-98880000I5J240000D01*
G01*
X77894295Y-99120000D02*
G75*
G03*
X78134300Y-98880000I5J240000D01*
G01*
X74894295Y-97980000D02*
G75*
G02*
X75134300Y-98220000I5J-240000D01*
G01*
X76334295Y-98880000D02*
G75*
G03*
X76574295Y-99120005I240005J0D01*
G01*
X78494295Y-97980000D02*
G75*
G02*
X78734300Y-98220000I5J-240000D01*
G01*
%TO.N,/MPUB/SD_B_D0*%
X75067079Y-96520000D02*
X75187079Y-96520000D01*
X82850000Y-97450000D02*
X82850000Y-106400000D01*
X67100000Y-95850000D02*
X72787079Y-95850000D01*
X74827079Y-95850000D02*
X74827079Y-96280000D01*
X73867079Y-96520000D02*
X73987079Y-96520000D01*
X73627079Y-95420000D02*
X73627079Y-95610000D01*
X82850000Y-106400000D02*
X82200000Y-107050000D01*
X73627079Y-95610000D02*
X73627079Y-96280000D01*
X73267079Y-95180000D02*
X73387079Y-95180000D01*
X73027079Y-95610000D02*
X73027079Y-95420000D01*
X74227079Y-96280000D02*
X74227079Y-95850000D01*
X75427079Y-96280000D02*
X75427079Y-96090000D01*
X76357551Y-95850000D02*
X81250000Y-95850000D01*
X81250000Y-95850000D02*
X82850000Y-97450000D01*
X75787079Y-95850000D02*
X76357551Y-95850000D01*
X74467079Y-95180000D02*
X74587079Y-95180000D01*
X74827079Y-95420000D02*
X74827079Y-95850000D01*
X75667079Y-95850000D02*
X75787079Y-95850000D01*
X74227079Y-95850000D02*
X74227079Y-95420000D01*
X73627079Y-96280000D02*
G75*
G03*
X73867079Y-96520021I240021J0D01*
G01*
X74827079Y-96280000D02*
G75*
G03*
X75067079Y-96520021I240021J0D01*
G01*
X74587079Y-95180000D02*
G75*
G02*
X74827100Y-95420000I21J-240000D01*
G01*
X74227079Y-95420000D02*
G75*
G02*
X74467079Y-95179979I240021J0D01*
G01*
X75187079Y-96520000D02*
G75*
G03*
X75427100Y-96280000I21J240000D01*
G01*
X72787079Y-95850000D02*
G75*
G03*
X73027100Y-95610000I21J240000D01*
G01*
X73987079Y-96520000D02*
G75*
G03*
X74227100Y-96280000I21J240000D01*
G01*
X73387079Y-95180000D02*
G75*
G02*
X73627100Y-95420000I21J-240000D01*
G01*
X75427079Y-96090000D02*
G75*
G02*
X75667079Y-95849979I240021J0D01*
G01*
X73027079Y-95420000D02*
G75*
G02*
X73267079Y-95179979I240021J0D01*
G01*
%TO.N,/MPUB/SD_B_DET*%
X69524965Y-100000000D02*
X69644965Y-100000000D01*
X71924965Y-100000000D02*
X72044965Y-100000000D01*
X72284965Y-100240000D02*
X72284965Y-100760000D01*
X72524965Y-101000000D02*
X72644965Y-101000000D01*
X67100000Y-96900000D02*
X66684562Y-96900000D01*
X64760000Y-98330827D02*
X64240000Y-98330827D01*
X64450000Y-96900000D02*
X64000000Y-97350000D01*
X65844562Y-97140000D02*
X65844562Y-96140000D01*
X68324965Y-100000000D02*
X68444965Y-100000000D01*
X71084965Y-100240000D02*
X71084965Y-100760000D01*
X70724965Y-100000000D02*
X70844965Y-100000000D01*
X65843465Y-100240000D02*
X65843465Y-100760000D01*
X65244562Y-96140000D02*
X65244562Y-96660000D01*
X64000000Y-100350000D02*
X64650000Y-101000000D01*
X70484965Y-100760000D02*
X70484965Y-100240000D01*
X72884965Y-100760000D02*
X72884965Y-100240000D01*
X73484965Y-100240000D02*
X73484965Y-100760000D01*
X66204562Y-97900000D02*
X66084562Y-97900000D01*
X68924965Y-101000000D02*
X69044965Y-101000000D01*
X64000000Y-98930827D02*
X64760000Y-98930827D01*
X64000000Y-100287696D02*
X64000000Y-100350000D01*
X64240000Y-98330827D02*
X63390000Y-98330827D01*
X69884965Y-100240000D02*
X69884965Y-100760000D01*
X70124965Y-101000000D02*
X70244965Y-101000000D01*
X64000000Y-97350000D02*
X64000000Y-97490827D01*
X64000000Y-99770827D02*
X64000000Y-99890827D01*
X73885013Y-101000000D02*
X73900000Y-101000000D01*
X65004562Y-96900000D02*
X64884562Y-96900000D01*
X66550669Y-101000000D02*
X67844965Y-101000000D01*
X65844562Y-97660000D02*
X65844562Y-97140000D01*
X64760000Y-99530827D02*
X64240000Y-99530827D01*
X73844965Y-101000000D02*
X73885013Y-101000000D01*
X65604562Y-95900000D02*
X65484562Y-95900000D01*
X65243465Y-100760000D02*
X65243465Y-100240000D01*
X64240000Y-97730827D02*
X64760000Y-97730827D01*
X65000000Y-97970827D02*
X65000000Y-98090827D01*
X65000000Y-99170827D02*
X65000000Y-99290827D01*
X68684965Y-100240000D02*
X68684965Y-100760000D01*
X73124965Y-100000000D02*
X73244965Y-100000000D01*
X64884562Y-96900000D02*
X64450000Y-96900000D01*
X69284965Y-100760000D02*
X69284965Y-100240000D01*
X71324965Y-101000000D02*
X71444965Y-101000000D01*
X68084965Y-100760000D02*
X68084965Y-100240000D01*
X71684965Y-100760000D02*
X71684965Y-100240000D01*
X64000000Y-99890827D02*
X64000000Y-100287696D01*
X63150000Y-98570827D02*
X63150000Y-98690827D01*
X66203465Y-101000000D02*
X66550669Y-101000000D01*
X63390000Y-98930827D02*
X64000000Y-98930827D01*
X73724965Y-101000000D02*
X73844965Y-101000000D01*
X65483465Y-100000000D02*
X65603465Y-100000000D01*
X64650000Y-101000000D02*
X65003465Y-101000000D01*
X66083465Y-101000000D02*
X66203465Y-101000000D01*
X66444562Y-97140000D02*
X66444562Y-97660000D01*
X64760000Y-98930827D02*
G75*
G02*
X64999973Y-99170827I0J-239973D01*
G01*
X65003465Y-101000000D02*
G75*
G03*
X65243500Y-100760000I35J240000D01*
G01*
X73484965Y-100760000D02*
G75*
G03*
X73724965Y-101000035I240035J0D01*
G01*
X65843465Y-100760000D02*
G75*
G03*
X66083465Y-101000035I240035J0D01*
G01*
X64000000Y-97490827D02*
G75*
G03*
X64240000Y-97730800I240000J27D01*
G01*
X69884965Y-100760000D02*
G75*
G03*
X70124965Y-101000035I240035J0D01*
G01*
X66684562Y-96900000D02*
G75*
G03*
X66444600Y-97140000I38J-240000D01*
G01*
X70484965Y-100240000D02*
G75*
G02*
X70724965Y-99999965I240035J0D01*
G01*
X65484562Y-95900000D02*
G75*
G03*
X65244600Y-96140000I38J-240000D01*
G01*
X70244965Y-101000000D02*
G75*
G03*
X70485000Y-100760000I35J240000D01*
G01*
X69044965Y-101000000D02*
G75*
G03*
X69285000Y-100760000I35J240000D01*
G01*
X72284965Y-100760000D02*
G75*
G03*
X72524965Y-101000035I240035J0D01*
G01*
X71084965Y-100760000D02*
G75*
G03*
X71324965Y-101000035I240035J0D01*
G01*
X68084965Y-100240000D02*
G75*
G02*
X68324965Y-99999965I240035J0D01*
G01*
X66084562Y-97900000D02*
G75*
G02*
X65844600Y-97660000I38J240000D01*
G01*
X65844562Y-96140000D02*
G75*
G03*
X65604562Y-95900038I-239962J0D01*
G01*
X65244562Y-96660000D02*
G75*
G02*
X65004562Y-96899962I-239962J0D01*
G01*
X69284965Y-100240000D02*
G75*
G02*
X69524965Y-99999965I240035J0D01*
G01*
X73244965Y-100000000D02*
G75*
G02*
X73485000Y-100240000I35J-240000D01*
G01*
X65243465Y-100240000D02*
G75*
G02*
X65483465Y-99999965I240035J0D01*
G01*
X70844965Y-100000000D02*
G75*
G02*
X71085000Y-100240000I35J-240000D01*
G01*
X65000000Y-99290827D02*
G75*
G02*
X64760000Y-99530800I-240000J27D01*
G01*
X72044965Y-100000000D02*
G75*
G02*
X72285000Y-100240000I35J-240000D01*
G01*
X65000000Y-98090827D02*
G75*
G02*
X64760000Y-98330800I-240000J27D01*
G01*
X68684965Y-100760000D02*
G75*
G03*
X68924965Y-101000035I240035J0D01*
G01*
X63390000Y-98330827D02*
G75*
G03*
X63150027Y-98570827I0J-239973D01*
G01*
X67844965Y-101000000D02*
G75*
G03*
X68085000Y-100760000I35J240000D01*
G01*
X71444965Y-101000000D02*
G75*
G03*
X71685000Y-100760000I35J240000D01*
G01*
X66444562Y-97660000D02*
G75*
G02*
X66204562Y-97899962I-239962J0D01*
G01*
X68444965Y-100000000D02*
G75*
G02*
X68685000Y-100240000I35J-240000D01*
G01*
X69644965Y-100000000D02*
G75*
G02*
X69885000Y-100240000I35J-240000D01*
G01*
X71684965Y-100240000D02*
G75*
G02*
X71924965Y-99999965I240035J0D01*
G01*
X72884965Y-100240000D02*
G75*
G02*
X73124965Y-99999965I240035J0D01*
G01*
X72644965Y-101000000D02*
G75*
G03*
X72885000Y-100760000I35J240000D01*
G01*
X65603465Y-100000000D02*
G75*
G02*
X65843500Y-100240000I35J-240000D01*
G01*
X64240000Y-99530827D02*
G75*
G03*
X64000027Y-99770827I0J-239973D01*
G01*
X64760000Y-97730827D02*
G75*
G02*
X64999973Y-97970827I0J-239973D01*
G01*
X63150000Y-98690827D02*
G75*
G03*
X63390000Y-98930800I240000J27D01*
G01*
%TO.N,/MPUB/SD_B_D3*%
X77290000Y-102010000D02*
X77290000Y-101690000D01*
X78130000Y-102250000D02*
X78250000Y-102250000D01*
X79930000Y-101450000D02*
X80050000Y-101450000D01*
X67050000Y-101450000D02*
X76450000Y-101450000D01*
X78730000Y-100450000D02*
X78850000Y-100450000D01*
X79330000Y-102250000D02*
X79450000Y-102250000D01*
X80865437Y-101565437D02*
X81350000Y-102050000D01*
X76690000Y-101690000D02*
X76690000Y-102010000D01*
X81350000Y-104150000D02*
X81050000Y-104450000D01*
X76930000Y-102250000D02*
X77050000Y-102250000D01*
X79090000Y-100690000D02*
X79090000Y-101450000D01*
X78490000Y-101450000D02*
X78490000Y-100690000D01*
X79090000Y-101450000D02*
X79090000Y-102010000D01*
X77290000Y-101690000D02*
X77290000Y-100690000D01*
X79690000Y-102010000D02*
X79690000Y-101690000D01*
X78490000Y-102010000D02*
X78490000Y-101450000D01*
X81350000Y-102050000D02*
X81350000Y-104150000D01*
X80750000Y-101450000D02*
X80865437Y-101565437D01*
X80050000Y-101450000D02*
X80750000Y-101450000D01*
X77890000Y-100690000D02*
X77890000Y-101450000D01*
X77890000Y-101450000D02*
X77890000Y-102010000D01*
X77530000Y-100450000D02*
X77650000Y-100450000D01*
X77890000Y-102010000D02*
G75*
G03*
X78130000Y-102250000I240000J0D01*
G01*
X78490000Y-100690000D02*
G75*
G02*
X78730000Y-100450000I240000J0D01*
G01*
X77050000Y-102250000D02*
G75*
G03*
X77290000Y-102010000I0J240000D01*
G01*
X77290000Y-100690000D02*
G75*
G02*
X77530000Y-100450000I240000J0D01*
G01*
X79090000Y-102010000D02*
G75*
G03*
X79330000Y-102250000I240000J0D01*
G01*
X78250000Y-102250000D02*
G75*
G03*
X78490000Y-102010000I0J240000D01*
G01*
X79450000Y-102250000D02*
G75*
G03*
X79690000Y-102010000I0J240000D01*
G01*
X77650000Y-100450000D02*
G75*
G02*
X77890000Y-100690000I0J-240000D01*
G01*
X78850000Y-100450000D02*
G75*
G02*
X79090000Y-100690000I0J-240000D01*
G01*
X76450000Y-101450000D02*
G75*
G02*
X76690000Y-101690000I0J-240000D01*
G01*
X79690000Y-101690000D02*
G75*
G02*
X79930000Y-101450000I240000J0D01*
G01*
X76690000Y-102010000D02*
G75*
G03*
X76930000Y-102250000I240000J0D01*
G01*
%TO.N,/MPUA/SD_A_DET*%
X139487195Y-104312805D02*
X139500000Y-104300000D01*
X132673021Y-102080000D02*
X132503021Y-102080000D01*
X134050000Y-101650000D02*
X133703021Y-101650000D01*
X133565167Y-104850000D02*
X133565167Y-105280000D01*
X134765167Y-104420000D02*
X134765167Y-104850000D01*
X132605167Y-105520000D02*
X132725167Y-105520000D01*
X130805167Y-104180000D02*
X130925167Y-104180000D01*
X136565167Y-105280000D02*
X136565167Y-104850000D01*
X131903021Y-101650000D02*
X131850000Y-101650000D01*
X135365167Y-105280000D02*
X135365167Y-104850000D01*
X133805167Y-105520000D02*
X133925167Y-105520000D01*
X135965167Y-104420000D02*
X135965167Y-104850000D01*
X132888021Y-101435000D02*
X132888021Y-101650000D01*
X137765167Y-105280000D02*
X137765167Y-105090000D01*
X134165167Y-104850000D02*
X134165167Y-104420000D01*
X133565167Y-104420000D02*
X133565167Y-104850000D01*
X136805167Y-104180000D02*
X136925167Y-104180000D01*
X135005167Y-105520000D02*
X135125167Y-105520000D01*
X135365167Y-104850000D02*
X135365167Y-104420000D01*
X130565167Y-104610000D02*
X130565167Y-104420000D01*
X131405167Y-105520000D02*
X131525167Y-105520000D01*
X132365167Y-104520000D02*
X132365167Y-104850000D01*
X131165167Y-104420000D02*
X131165167Y-104610000D01*
X133273021Y-101220000D02*
X133103021Y-101220000D01*
X130000000Y-104850000D02*
X130325167Y-104850000D01*
X136565167Y-104850000D02*
X136565167Y-104420000D01*
X139500000Y-104300000D02*
X139500000Y-103750000D01*
X134765167Y-104850000D02*
X134765167Y-105280000D01*
X138950000Y-104850000D02*
X139487195Y-104312805D01*
X132005167Y-104280000D02*
X132125167Y-104280000D01*
X131165167Y-104610000D02*
X131165167Y-105280000D01*
X131765167Y-104850000D02*
X131765167Y-104520000D01*
X134165167Y-105280000D02*
X134165167Y-104850000D01*
X135605167Y-104180000D02*
X135725167Y-104180000D01*
X135965167Y-104850000D02*
X135965167Y-105280000D01*
X132888021Y-101650000D02*
X132888021Y-101865000D01*
X131765167Y-105280000D02*
X131765167Y-104850000D01*
X134405167Y-104180000D02*
X134525167Y-104180000D01*
X129500000Y-102000000D02*
X129500000Y-104350000D01*
X129500000Y-104350000D02*
X130000000Y-104850000D01*
X132073021Y-101650000D02*
X131903021Y-101650000D01*
X133205167Y-104180000D02*
X133325167Y-104180000D01*
X137165167Y-104850000D02*
X137165167Y-105280000D01*
X138125167Y-104850000D02*
X138950000Y-104850000D01*
X131850000Y-101650000D02*
X129850000Y-101650000D01*
X132965167Y-104850000D02*
X132965167Y-104420000D01*
X132965167Y-105280000D02*
X132965167Y-104850000D01*
X136205167Y-105520000D02*
X136325167Y-105520000D01*
X129850000Y-101650000D02*
X129500000Y-102000000D01*
X137405167Y-105520000D02*
X137525167Y-105520000D01*
X137165167Y-104420000D02*
X137165167Y-104850000D01*
X138005167Y-104850000D02*
X138125167Y-104850000D01*
X132365167Y-104850000D02*
X132365167Y-105280000D01*
X136565167Y-104420000D02*
G75*
G02*
X136805167Y-104179967I240033J0D01*
G01*
X134165167Y-104420000D02*
G75*
G02*
X134405167Y-104179967I240033J0D01*
G01*
X130925167Y-104180000D02*
G75*
G02*
X131165200Y-104420000I33J-240000D01*
G01*
X132125167Y-104280000D02*
G75*
G02*
X132365200Y-104520000I33J-240000D01*
G01*
X134765167Y-105280000D02*
G75*
G03*
X135005167Y-105520033I240033J0D01*
G01*
X134525167Y-104180000D02*
G75*
G02*
X134765200Y-104420000I33J-240000D01*
G01*
X132725167Y-105520000D02*
G75*
G03*
X132965200Y-105280000I33J240000D01*
G01*
X133703021Y-101650000D02*
G75*
G02*
X133488000Y-101435000I-21J215000D01*
G01*
X136925167Y-104180000D02*
G75*
G02*
X137165200Y-104420000I33J-240000D01*
G01*
X135365167Y-104420000D02*
G75*
G02*
X135605167Y-104179967I240033J0D01*
G01*
X133325167Y-104180000D02*
G75*
G02*
X133565200Y-104420000I33J-240000D01*
G01*
X137165167Y-105280000D02*
G75*
G03*
X137405167Y-105520033I240033J0D01*
G01*
X135965167Y-105280000D02*
G75*
G03*
X136205167Y-105520033I240033J0D01*
G01*
X131765167Y-104520000D02*
G75*
G02*
X132005167Y-104279967I240033J0D01*
G01*
X136325167Y-105520000D02*
G75*
G03*
X136565200Y-105280000I33J240000D01*
G01*
X130565167Y-104420000D02*
G75*
G02*
X130805167Y-104179967I240033J0D01*
G01*
X135125167Y-105520000D02*
G75*
G03*
X135365200Y-105280000I33J240000D01*
G01*
X131525167Y-105520000D02*
G75*
G03*
X131765200Y-105280000I33J240000D01*
G01*
X130325167Y-104850000D02*
G75*
G03*
X130565200Y-104610000I33J240000D01*
G01*
X132365167Y-105280000D02*
G75*
G03*
X132605167Y-105520033I240033J0D01*
G01*
X132503021Y-102080000D02*
G75*
G02*
X132288000Y-101865000I-21J215000D01*
G01*
X131165167Y-105280000D02*
G75*
G03*
X131405167Y-105520033I240033J0D01*
G01*
X132965167Y-104420000D02*
G75*
G02*
X133205167Y-104179967I240033J0D01*
G01*
X135725167Y-104180000D02*
G75*
G02*
X135965200Y-104420000I33J-240000D01*
G01*
X132888021Y-101865000D02*
G75*
G02*
X132673021Y-102080021I-215021J0D01*
G01*
X133565167Y-105280000D02*
G75*
G03*
X133805167Y-105520033I240033J0D01*
G01*
X133103021Y-101220000D02*
G75*
G03*
X132888000Y-101435000I-21J-215000D01*
G01*
X137765167Y-105090000D02*
G75*
G02*
X138005167Y-104849967I240033J0D01*
G01*
X133925167Y-105520000D02*
G75*
G03*
X134165200Y-105280000I33J240000D01*
G01*
X137525167Y-105520000D02*
G75*
G03*
X137765200Y-105280000I33J240000D01*
G01*
X133488021Y-101435000D02*
G75*
G03*
X133273021Y-101219979I-215021J0D01*
G01*
X132288021Y-101865000D02*
G75*
G03*
X132073021Y-101649979I-215021J0D01*
G01*
%TO.N,/MPUA/SD_A_D0*%
X126350000Y-93600000D02*
X139100000Y-93600000D01*
X140150000Y-101600000D02*
X139500000Y-101600000D01*
X125750000Y-94590000D02*
X125750000Y-94200000D01*
X139100000Y-93600000D02*
X140700000Y-95200000D01*
X140700000Y-95200000D02*
X140700000Y-101050000D01*
X140700000Y-101050000D02*
X140150000Y-101600000D01*
X125750000Y-94200000D02*
X126350000Y-93600000D01*
%TO.N,/MPUA/SD_A_D3*%
X134453913Y-99800000D02*
X134453913Y-99600000D01*
X137653913Y-100200000D02*
X137853913Y-100200000D01*
X134453913Y-100000000D02*
X134453913Y-99800000D01*
X135053913Y-99600000D02*
X135053913Y-99800000D01*
X135853913Y-99400000D02*
X136053913Y-99400000D01*
X134053913Y-100200000D02*
X134253913Y-100200000D01*
X133853913Y-99600000D02*
X133853913Y-99800000D01*
X136853913Y-99800000D02*
X136853913Y-99600000D01*
X128750000Y-97650000D02*
X130900000Y-99800000D01*
X135653913Y-99800000D02*
X135653913Y-99600000D01*
X135253913Y-100200000D02*
X135453913Y-100200000D01*
X132853913Y-100200000D02*
X133053913Y-100200000D01*
X132653913Y-99600000D02*
X132653913Y-99800000D01*
X137453913Y-99600000D02*
X137453913Y-99800000D01*
X140100000Y-97200000D02*
X139850000Y-96950000D01*
X126950000Y-97250000D02*
X127650000Y-96550000D01*
X132253913Y-99400000D02*
X132453913Y-99400000D01*
X135653913Y-100000000D02*
X135653913Y-99800000D01*
X127650000Y-96550000D02*
X128300000Y-96550000D01*
X134653913Y-99400000D02*
X134853913Y-99400000D01*
X138453913Y-99800000D02*
X139009733Y-99800000D01*
X138253913Y-99800000D02*
X138453913Y-99800000D01*
X128300000Y-96550000D02*
X128750000Y-97000000D01*
X133453913Y-99400000D02*
X133653913Y-99400000D01*
X136253913Y-99600000D02*
X136253913Y-99800000D01*
X140100000Y-99150000D02*
X140100000Y-97200000D01*
X139450000Y-99800000D02*
X140100000Y-99150000D01*
X133853913Y-99800000D02*
X133853913Y-100000000D01*
X137053913Y-99400000D02*
X137253913Y-99400000D01*
X135053913Y-99800000D02*
X135053913Y-100000000D01*
X136253913Y-99800000D02*
X136253913Y-100000000D01*
X137453913Y-99800000D02*
X137453913Y-100000000D01*
X133253913Y-100000000D02*
X133253913Y-99800000D01*
X133253913Y-99800000D02*
X133253913Y-99600000D01*
X132653913Y-99800000D02*
X132653913Y-100000000D01*
X136853913Y-100000000D02*
X136853913Y-99800000D01*
X139009733Y-99800000D02*
X139450000Y-99800000D01*
X130900000Y-99800000D02*
X131853913Y-99800000D01*
X139850000Y-96950000D02*
X139550000Y-96950000D01*
X136453913Y-100200000D02*
X136653913Y-100200000D01*
X128750000Y-97000000D02*
X128750000Y-97650000D01*
X131853913Y-99800000D02*
G75*
G03*
X132053900Y-99600000I-13J200000D01*
G01*
X134253913Y-100200000D02*
G75*
G03*
X134453900Y-100000000I-13J200000D01*
G01*
X136053913Y-99400000D02*
G75*
G02*
X136253900Y-99600000I-13J-200000D01*
G01*
X137853913Y-100200000D02*
G75*
G03*
X138053900Y-100000000I-13J200000D01*
G01*
X136853913Y-99600000D02*
G75*
G02*
X137053913Y-99400013I199987J0D01*
G01*
X133253913Y-99600000D02*
G75*
G02*
X133453913Y-99400013I199987J0D01*
G01*
X138053913Y-100000000D02*
G75*
G02*
X138253913Y-99800013I199987J0D01*
G01*
X133853913Y-100000000D02*
G75*
G03*
X134053913Y-100199987I199987J0D01*
G01*
X136653913Y-100200000D02*
G75*
G03*
X136853900Y-100000000I-13J200000D01*
G01*
X135053913Y-100000000D02*
G75*
G03*
X135253913Y-100199987I199987J0D01*
G01*
X135653913Y-99600000D02*
G75*
G02*
X135853913Y-99400013I199987J0D01*
G01*
X137453913Y-100000000D02*
G75*
G03*
X137653913Y-100199987I199987J0D01*
G01*
X134453913Y-99600000D02*
G75*
G02*
X134653913Y-99400013I199987J0D01*
G01*
X133653913Y-99400000D02*
G75*
G02*
X133853900Y-99600000I-13J-200000D01*
G01*
X135453913Y-100200000D02*
G75*
G03*
X135653900Y-100000000I-13J200000D01*
G01*
X136253913Y-100000000D02*
G75*
G03*
X136453913Y-100199987I199987J0D01*
G01*
X134853913Y-99400000D02*
G75*
G02*
X135053900Y-99600000I-13J-200000D01*
G01*
X133053913Y-100200000D02*
G75*
G03*
X133253900Y-100000000I-13J200000D01*
G01*
X137253913Y-99400000D02*
G75*
G02*
X137453900Y-99600000I-13J-200000D01*
G01*
X132053913Y-99600000D02*
G75*
G02*
X132253913Y-99400013I199987J0D01*
G01*
X132653913Y-100000000D02*
G75*
G03*
X132853913Y-100199987I199987J0D01*
G01*
X132453913Y-99400000D02*
G75*
G02*
X132653900Y-99600000I-13J-200000D01*
G01*
%TO.N,/MPUA/SD_A_D2*%
X126550000Y-94590000D02*
X126940000Y-94200000D01*
X126940000Y-94200000D02*
X133600000Y-94200000D01*
X133600000Y-94200000D02*
X135350000Y-95950000D01*
X135350000Y-95950000D02*
X139550000Y-95950000D01*
%TO.N,/MPUA/SD_A_D1*%
X131175604Y-100839894D02*
X131225710Y-100890000D01*
X127700000Y-100100000D02*
X128439894Y-100839894D01*
X131225710Y-100890000D02*
X137690000Y-100890000D01*
X137690000Y-100890000D02*
X139500000Y-102700000D01*
X127700000Y-97200000D02*
X127700000Y-100100000D01*
X128439894Y-100839894D02*
X131175604Y-100839894D01*
%TO.N,/MPUA/SD_A_CMD*%
X129559121Y-96150000D02*
X129559121Y-95690000D01*
X133159121Y-96150000D02*
X133159121Y-95690000D01*
X133159121Y-96610000D02*
X133159121Y-96150000D01*
X130759121Y-96150000D02*
X130759121Y-95690000D01*
X132559121Y-96150000D02*
X132559121Y-96610000D01*
X128959121Y-95690000D02*
X128959121Y-95910000D01*
X130159121Y-96150000D02*
X130159121Y-96610000D01*
X133759121Y-95690000D02*
X133759121Y-95910000D01*
X131599121Y-96850000D02*
X131719121Y-96850000D01*
X128359121Y-95910000D02*
X128359121Y-95690000D01*
X131359121Y-96150000D02*
X131359121Y-96610000D01*
X130159121Y-95690000D02*
X130159121Y-96150000D01*
X135178354Y-96528354D02*
X136650000Y-98000000D01*
X136650000Y-98000000D02*
X139550000Y-98000000D01*
X129199121Y-96850000D02*
X129319121Y-96850000D01*
X133999121Y-96150000D02*
X134119121Y-96150000D01*
X129799121Y-95450000D02*
X129919121Y-95450000D01*
X128599121Y-95450000D02*
X128719121Y-95450000D01*
X130999121Y-95450000D02*
X131119121Y-95450000D01*
X130399121Y-96850000D02*
X130519121Y-96850000D01*
X132559121Y-95690000D02*
X132559121Y-96150000D01*
X134119121Y-96150000D02*
X134800000Y-96150000D01*
X129559121Y-96610000D02*
X129559121Y-96150000D01*
X131959121Y-96610000D02*
X131959121Y-96150000D01*
X132199121Y-95450000D02*
X132319121Y-95450000D01*
X126950000Y-96450000D02*
X127250000Y-96150000D01*
X131359121Y-95690000D02*
X131359121Y-96150000D01*
X127250000Y-96150000D02*
X128119121Y-96150000D01*
X131959121Y-96150000D02*
X131959121Y-95690000D01*
X133399121Y-95450000D02*
X133519121Y-95450000D01*
X132799121Y-96850000D02*
X132919121Y-96850000D01*
X134800000Y-96150000D02*
X135178354Y-96528354D01*
X128959121Y-95910000D02*
X128959121Y-96610000D01*
X130759121Y-96610000D02*
X130759121Y-96150000D01*
X131359121Y-96610000D02*
G75*
G03*
X131599121Y-96849979I239979J0D01*
G01*
X133519121Y-95450000D02*
G75*
G02*
X133759100Y-95690000I-21J-240000D01*
G01*
X129319121Y-96850000D02*
G75*
G03*
X129559100Y-96610000I-21J240000D01*
G01*
X130519121Y-96850000D02*
G75*
G03*
X130759100Y-96610000I-21J240000D01*
G01*
X129559121Y-95690000D02*
G75*
G02*
X129799121Y-95450021I239979J0D01*
G01*
X132559121Y-96610000D02*
G75*
G03*
X132799121Y-96849979I239979J0D01*
G01*
X131119121Y-95450000D02*
G75*
G02*
X131359100Y-95690000I-21J-240000D01*
G01*
X132319121Y-95450000D02*
G75*
G02*
X132559100Y-95690000I-21J-240000D01*
G01*
X129919121Y-95450000D02*
G75*
G02*
X130159100Y-95690000I-21J-240000D01*
G01*
X128359121Y-95690000D02*
G75*
G02*
X128599121Y-95450021I239979J0D01*
G01*
X131959121Y-95690000D02*
G75*
G02*
X132199121Y-95450021I239979J0D01*
G01*
X132919121Y-96850000D02*
G75*
G03*
X133159100Y-96610000I-21J240000D01*
G01*
X131719121Y-96850000D02*
G75*
G03*
X131959100Y-96610000I-21J240000D01*
G01*
X133759121Y-95910000D02*
G75*
G03*
X133999121Y-96149979I239979J0D01*
G01*
X130159121Y-96610000D02*
G75*
G03*
X130399121Y-96849979I239979J0D01*
G01*
X128719121Y-95450000D02*
G75*
G02*
X128959100Y-95690000I-21J-240000D01*
G01*
X128959121Y-96610000D02*
G75*
G03*
X129199121Y-96849979I239979J0D01*
G01*
X130759121Y-95690000D02*
G75*
G02*
X130999121Y-95450021I239979J0D01*
G01*
X133159121Y-95690000D02*
G75*
G02*
X133399121Y-95450021I239979J0D01*
G01*
X128119121Y-96150000D02*
G75*
G03*
X128359100Y-95910000I-21J240000D01*
G01*
%TO.N,/MPUA/SD_A_CLK*%
X146253274Y-102498199D02*
X146338126Y-102413348D01*
X126960000Y-102960000D02*
X130450000Y-106450000D01*
X145489598Y-103770991D02*
X145404746Y-103686139D01*
X145404746Y-103346727D02*
X145489598Y-103261876D01*
X148035183Y-101564818D02*
X148319213Y-101280787D01*
X147610916Y-102498198D02*
X147356357Y-102243639D01*
X149000000Y-100600000D02*
X151400000Y-100600000D01*
X143150000Y-106450000D02*
X145489597Y-104110403D01*
X146932097Y-102667907D02*
X147186653Y-102922463D01*
X126960000Y-98040000D02*
X126960000Y-102960000D01*
X148319213Y-101280787D02*
X149000000Y-100600000D01*
X146677536Y-103770991D02*
X146762388Y-103686138D01*
X147526066Y-101564820D02*
X147610919Y-101649673D01*
X145913863Y-103346729D02*
X146338125Y-103770991D01*
X145829010Y-103261876D02*
X145913863Y-103346729D01*
X147356357Y-102243639D02*
X147101801Y-101989083D01*
X147101802Y-101649671D02*
X147186654Y-101564820D01*
X146762388Y-103346726D02*
X146507829Y-103092167D01*
X146677538Y-102413348D02*
X146932097Y-102667907D01*
X147526064Y-102922463D02*
X147610916Y-102837610D01*
X147950331Y-101649673D02*
X148035183Y-101564818D01*
X130450000Y-106450000D02*
X143150000Y-106450000D01*
X146507829Y-103092167D02*
X146253273Y-102837611D01*
X147610916Y-102837610D02*
G75*
G03*
X147610920Y-102498194I-169716J169710D01*
G01*
X147101801Y-101989083D02*
G75*
G02*
X147101825Y-101649694I169699J169683D01*
G01*
X146338127Y-102413349D02*
G75*
G02*
X146677537Y-102413349I169705J-169700D01*
G01*
X147610920Y-101649672D02*
G75*
G03*
X147950330Y-101649672I169705J169707D01*
G01*
X147186655Y-101564821D02*
G75*
G02*
X147526065Y-101564821I169705J-169700D01*
G01*
X146762388Y-103686138D02*
G75*
G03*
X146762420Y-103346694I-169688J169738D01*
G01*
X146253274Y-102837610D02*
G75*
G02*
X146253269Y-102498194I169726J169710D01*
G01*
X145489599Y-103261877D02*
G75*
G02*
X145829009Y-103261877I169705J-169700D01*
G01*
X147186653Y-102922463D02*
G75*
G03*
X147526064Y-102922463I169706J169707D01*
G01*
X145489597Y-104110403D02*
G75*
G03*
X145489594Y-103770995I-169697J169703D01*
G01*
X145404746Y-103686139D02*
G75*
G02*
X145404713Y-103346694I169654J169739D01*
G01*
X146338125Y-103770991D02*
G75*
G03*
X146677536Y-103770991I169706J169707D01*
G01*
%TO.N,SAMB_FPGA_RX*%
X84225000Y-106575000D02*
X84225000Y-103999695D01*
X84650000Y-107000000D02*
X84225000Y-106575000D01*
X96600000Y-102750000D02*
X96650000Y-102750000D01*
X94550000Y-102750000D02*
X96600000Y-102750000D01*
D18*
X84225000Y-103999695D02*
X85474695Y-102750000D01*
D19*
X98704937Y-102200000D02*
X99927319Y-103422382D01*
X85474695Y-102750000D02*
X94550000Y-102750000D01*
X96650000Y-102750000D02*
X97200000Y-102200000D01*
X97200000Y-102200000D02*
X98704937Y-102200000D01*
%TO.N,SAMB_LCD_FPGA_D23*%
X92731815Y-101050000D02*
X92731815Y-100950000D01*
X93331815Y-100695262D02*
X93331815Y-100950000D01*
X94431815Y-101150000D02*
X94031815Y-101150000D01*
X93691815Y-100455262D02*
X93571815Y-100455262D01*
X94531815Y-100668952D02*
X94531815Y-100950000D01*
X92731815Y-100950000D02*
X92731815Y-100776733D01*
X93931815Y-101050000D02*
X93931815Y-100950000D01*
X93931815Y-100950000D02*
X93931815Y-100695262D01*
X95131815Y-100950000D02*
X95131815Y-100668952D01*
X91958548Y-100950000D02*
X91771815Y-100950000D01*
X97848992Y-100530838D02*
X97429830Y-100950000D01*
X92558548Y-100603466D02*
X92305082Y-100603466D01*
X87801067Y-100950000D02*
X87400000Y-100950000D01*
X97429830Y-100950000D02*
X95831815Y-100950000D01*
X87400000Y-100950000D02*
X87050000Y-100600000D01*
X95631815Y-101150000D02*
X95231815Y-101150000D01*
X91771815Y-100950000D02*
X87801067Y-100950000D01*
X93231815Y-101150000D02*
X92831815Y-101150000D01*
X94531815Y-100950000D02*
X94531815Y-101050000D01*
X93331815Y-100950000D02*
X93331815Y-101050000D01*
X95131815Y-101050000D02*
X95131815Y-100950000D01*
X94891815Y-100428952D02*
X94771815Y-100428952D01*
X93571815Y-100455262D02*
G75*
G03*
X93331762Y-100695262I-15J-240038D01*
G01*
X95731815Y-101050000D02*
G75*
G02*
X95631815Y-101150015I-100015J0D01*
G01*
X94771815Y-100428952D02*
G75*
G03*
X94531752Y-100668952I-15J-240048D01*
G01*
X94531815Y-101050000D02*
G75*
G02*
X94431815Y-101150015I-100015J0D01*
G01*
X95131815Y-100668952D02*
G75*
G03*
X94891815Y-100428985I-240015J-48D01*
G01*
X93931815Y-100695262D02*
G75*
G03*
X93691815Y-100455285I-240015J-38D01*
G01*
X92731815Y-100776733D02*
G75*
G03*
X92558548Y-100603385I-173315J33D01*
G01*
X92131815Y-100776733D02*
G75*
G02*
X91958548Y-100950015I-173315J33D01*
G01*
X95231815Y-101150000D02*
G75*
G02*
X95131800Y-101050000I-15J100000D01*
G01*
X94031815Y-101150000D02*
G75*
G02*
X93931800Y-101050000I-15J100000D01*
G01*
X92305082Y-100603466D02*
G75*
G03*
X92131866Y-100776733I18J-173234D01*
G01*
X92831815Y-101150000D02*
G75*
G02*
X92731800Y-101050000I-15J100000D01*
G01*
X93331815Y-101050000D02*
G75*
G02*
X93231815Y-101150015I-100015J0D01*
G01*
X95831815Y-100950000D02*
G75*
G03*
X95731800Y-101050000I-15J-100000D01*
G01*
%TO.N,SAMB_LCD_FPGA_D11*%
X97103099Y-106150000D02*
X97002386Y-106150000D01*
X95404971Y-106390000D02*
X95404971Y-106767836D01*
X96604971Y-105832152D02*
X96604971Y-105910000D01*
X96004971Y-106390000D02*
X96004971Y-105832152D01*
X87000000Y-106150000D02*
X95164971Y-106150000D01*
X97676448Y-105576651D02*
X97103099Y-106150000D01*
X96844971Y-106150000D02*
X96964971Y-106150000D01*
X96004971Y-106767836D02*
X96004971Y-106390000D01*
X96244971Y-105592152D02*
X96364971Y-105592152D01*
X96964971Y-106150000D02*
X97002386Y-106150000D01*
X95644971Y-107007836D02*
X95764971Y-107007836D01*
X95164971Y-106150000D02*
G75*
G02*
X95405000Y-106390000I29J-240000D01*
G01*
X96604971Y-105910000D02*
G75*
G03*
X96844971Y-106150029I240029J0D01*
G01*
X95764971Y-107007836D02*
G75*
G03*
X96005036Y-106767836I29J240036D01*
G01*
X96364971Y-105592152D02*
G75*
G02*
X96605048Y-105832152I29J-240048D01*
G01*
X95404971Y-106767836D02*
G75*
G03*
X95644971Y-107007829I240029J36D01*
G01*
X96004971Y-105832152D02*
G75*
G02*
X96244971Y-105592171I240029J-48D01*
G01*
%TO.N,SAMB_LCD_FPGA_IRQ1*%
X86492752Y-103500000D02*
X98850000Y-103500000D01*
X98850000Y-103500000D02*
X99900000Y-104550000D01*
X85449262Y-104543490D02*
X86492752Y-103500000D01*
%TO.N,SAMB_LCD_FPGA_D21*%
X98494087Y-101900000D02*
X98847225Y-101546862D01*
X85750000Y-101900000D02*
X98494087Y-101900000D01*
X85450000Y-102200000D02*
X85750000Y-101900000D01*
%TO.N,SAMB_LCD_FPGA_TWCK*%
X97969828Y-106910000D02*
X97965000Y-106910000D01*
X86200000Y-107900000D02*
X81200000Y-107900000D01*
X99900000Y-105600000D02*
X98800000Y-105600000D01*
X80250000Y-106950000D02*
X79900000Y-106950000D01*
X98800000Y-105600000D02*
X98210000Y-106190000D01*
X97965000Y-106910000D02*
X97589787Y-107285213D01*
X98210000Y-106669828D02*
X97969828Y-106910000D01*
X86814787Y-107285213D02*
X86200000Y-107900000D01*
X98210000Y-106190000D02*
X98210000Y-106669828D01*
X97589787Y-107285213D02*
X86814787Y-107285213D01*
X81200000Y-107900000D02*
X80250000Y-106950000D01*
%TO.N,SAMB_LCD_FPGA_DEN*%
X86300000Y-101450000D02*
X97900000Y-101450000D01*
X85450000Y-100600000D02*
X86300000Y-101450000D01*
X97900000Y-101450000D02*
X98837912Y-100512088D01*
X98837912Y-100512088D02*
X99864153Y-100512088D01*
%TO.N,SAMB_LCD_FPGA_D5*%
X95838406Y-105177232D02*
X95009626Y-105177232D01*
X89519626Y-105177232D02*
X88211527Y-105177232D01*
X88211527Y-105177232D02*
X88077232Y-105177232D01*
X94169626Y-105417232D02*
X94169626Y-105033055D01*
X94169626Y-105628015D02*
X94169626Y-105417232D01*
X93329626Y-105868015D02*
X93209626Y-105868015D01*
X92969626Y-105177232D02*
X92969626Y-105033055D01*
X91769626Y-105177232D02*
X91769626Y-105033067D01*
X91169626Y-105033067D02*
X91169626Y-105177232D01*
X93569626Y-105033055D02*
X93569626Y-105177232D01*
X89826414Y-105177232D02*
X89519626Y-105177232D01*
X91769626Y-105628015D02*
X91769626Y-105177232D01*
X92369626Y-105033055D02*
X92369626Y-105177232D01*
X92129626Y-105868015D02*
X92009626Y-105868015D01*
X90426414Y-104890808D02*
X90112838Y-104890808D01*
X90569626Y-105628030D02*
X90569626Y-105177232D01*
X88077232Y-105177232D02*
X88050000Y-105150000D01*
X92825450Y-104888879D02*
X92513802Y-104888879D01*
X92969626Y-105628015D02*
X92969626Y-105177232D01*
X90569626Y-105177232D02*
X90569626Y-105034020D01*
X94529626Y-105868015D02*
X94409626Y-105868015D01*
X94769626Y-105417232D02*
X94769626Y-105628015D01*
X92369626Y-105177232D02*
X92369626Y-105628015D01*
X91625462Y-104888903D02*
X91313790Y-104888903D01*
X90929626Y-105868030D02*
X90809626Y-105868030D01*
X93569626Y-105177232D02*
X93569626Y-105628015D01*
X94025450Y-104888879D02*
X93713802Y-104888879D01*
X91169626Y-105177232D02*
X91169626Y-105628030D01*
X90569626Y-105034020D02*
G75*
G03*
X90426414Y-104890774I-143226J20D01*
G01*
X94769626Y-105628015D02*
G75*
G02*
X94529626Y-105868026I-240026J15D01*
G01*
X95009626Y-105177232D02*
G75*
G03*
X94769632Y-105417232I-26J-239968D01*
G01*
X92969626Y-105033055D02*
G75*
G03*
X92825450Y-104888974I-144126J-45D01*
G01*
X92513802Y-104888879D02*
G75*
G03*
X92369579Y-105033055I-2J-144221D01*
G01*
X93209626Y-105868015D02*
G75*
G02*
X92969585Y-105628015I-26J240015D01*
G01*
X93569626Y-105628015D02*
G75*
G02*
X93329626Y-105868026I-240026J15D01*
G01*
X89969626Y-105034020D02*
G75*
G02*
X89826414Y-105177226I-143226J20D01*
G01*
X91313790Y-104888903D02*
G75*
G03*
X91169603Y-105033067I10J-144197D01*
G01*
X92369626Y-105628015D02*
G75*
G02*
X92129626Y-105868026I-240026J15D01*
G01*
X93713802Y-104888879D02*
G75*
G03*
X93569579Y-105033055I-2J-144221D01*
G01*
X94169626Y-105033055D02*
G75*
G03*
X94025450Y-104888974I-144126J-45D01*
G01*
X90112838Y-104890808D02*
G75*
G03*
X89969608Y-105034020I-38J-143192D01*
G01*
X90809626Y-105868030D02*
G75*
G02*
X90569570Y-105628030I-26J240030D01*
G01*
X94409626Y-105868015D02*
G75*
G02*
X94169585Y-105628015I-26J240015D01*
G01*
X91769626Y-105033067D02*
G75*
G03*
X91625462Y-104888974I-144126J-33D01*
G01*
X92009626Y-105868015D02*
G75*
G02*
X91769585Y-105628015I-26J240015D01*
G01*
X91169626Y-105628030D02*
G75*
G02*
X90929626Y-105868026I-240026J30D01*
G01*
%TO.N,SAMB_FPGA_TX*%
X99800000Y-103950000D02*
X100461548Y-103950000D01*
X100461548Y-103950000D02*
X100762321Y-103649227D01*
X99015000Y-103165000D02*
X99800000Y-103950000D01*
X84650000Y-103998959D02*
X85483959Y-103165000D01*
X85483959Y-103165000D02*
X99015000Y-103165000D01*
X84650000Y-106200000D02*
X84650000Y-103998959D01*
%TO.N,SAMB_LCD_FPGA_D15*%
X94968860Y-104841300D02*
X94580810Y-104841300D01*
X92660160Y-104029754D02*
X92660160Y-104360000D01*
X94220160Y-103789754D02*
X94100160Y-103789754D01*
X92300160Y-104600000D02*
X91900000Y-104600000D01*
X94460160Y-104600000D02*
X94460160Y-104029754D01*
X96479675Y-104600000D02*
X95210160Y-104600000D01*
X93860160Y-104029754D02*
X93860160Y-104360000D01*
X94460160Y-104720650D02*
X94460160Y-104600000D01*
X93620160Y-104600000D02*
X93500160Y-104600000D01*
X96816124Y-104263551D02*
X96479675Y-104600000D01*
X92420160Y-104600000D02*
X92300160Y-104600000D01*
X91900000Y-104600000D02*
X86300000Y-104600000D01*
X93020160Y-103789754D02*
X92900160Y-103789754D01*
X93260160Y-104360000D02*
X93260160Y-104029754D01*
X93500160Y-104600000D02*
G75*
G02*
X93260200Y-104360000I40J240000D01*
G01*
X94580810Y-104841300D02*
G75*
G02*
X94460100Y-104720650I-10J120700D01*
G01*
X92900160Y-103789754D02*
G75*
G03*
X92660154Y-104029754I40J-240046D01*
G01*
X92660160Y-104360000D02*
G75*
G02*
X92420160Y-104599960I-239960J0D01*
G01*
X94460160Y-104029754D02*
G75*
G03*
X94220160Y-103789840I-239960J-46D01*
G01*
X95089510Y-104720650D02*
G75*
G02*
X94968860Y-104841210I-120610J50D01*
G01*
X93860160Y-104360000D02*
G75*
G02*
X93620160Y-104599960I-239960J0D01*
G01*
X94100160Y-103789754D02*
G75*
G03*
X93860154Y-104029754I40J-240046D01*
G01*
X93260160Y-104029754D02*
G75*
G03*
X93020160Y-103789840I-239960J-46D01*
G01*
X95210160Y-104600000D02*
G75*
G03*
X95089500Y-104720650I40J-120700D01*
G01*
%TO.N,SAMB_LCD_FPGA_HSYNC*%
X85450000Y-99600000D02*
X85450000Y-97400000D01*
X90537698Y-100050000D02*
X90400806Y-100050000D01*
X90260806Y-100190000D02*
X86040000Y-100190000D01*
X90325806Y-100125000D02*
X90260806Y-100190000D01*
X86040000Y-100190000D02*
X85450000Y-99600000D01*
X90400806Y-100050000D02*
X90325806Y-100125000D01*
X95750000Y-100050000D02*
X91737698Y-100050000D01*
X90897698Y-100410000D02*
X90897698Y-100290000D01*
X90657698Y-100050000D02*
X90537698Y-100050000D01*
X91497698Y-100290000D02*
X91497698Y-100410000D01*
X91257698Y-100650000D02*
X91137698Y-100650000D01*
X91137698Y-100650000D02*
G75*
G02*
X90897700Y-100410000I2J240000D01*
G01*
X91497698Y-100410000D02*
G75*
G02*
X91257698Y-100649998I-239998J0D01*
G01*
X90897698Y-100290000D02*
G75*
G03*
X90657698Y-100050002I-239998J0D01*
G01*
X91737698Y-100050000D02*
G75*
G03*
X91497700Y-100290000I2J-240000D01*
G01*
D18*
%TO.N,SAMA_FPGA_TX*%
X108275000Y-102825000D02*
X108700000Y-103250000D01*
X110200000Y-103250000D02*
X111450000Y-104500000D01*
X108275000Y-100425000D02*
X108275000Y-102825000D01*
X111450000Y-107300000D02*
X111850000Y-107700000D01*
X109850000Y-100450000D02*
X109525000Y-100125000D01*
X123350000Y-99900000D02*
X122800000Y-100450000D01*
X108700000Y-103250000D02*
X110200000Y-103250000D01*
X122800000Y-100450000D02*
X109850000Y-100450000D01*
X122450000Y-95950000D02*
X122450000Y-96750000D01*
X122950000Y-95450000D02*
X122450000Y-95950000D01*
X109525000Y-100125000D02*
X108575000Y-100125000D01*
X123350000Y-97650000D02*
X123350000Y-99900000D01*
X123616288Y-95450000D02*
X122950000Y-95450000D01*
X123874574Y-95191714D02*
X123616288Y-95450000D01*
X111450000Y-104500000D02*
X111450000Y-107300000D01*
X122450000Y-96750000D02*
X123350000Y-97650000D01*
X108575000Y-100125000D02*
X108275000Y-100425000D01*
D19*
%TO.N,SAMA_LCD_FPGA_TWD*%
X121300000Y-93800000D02*
X124380172Y-93800000D01*
X120350000Y-94750000D02*
X121300000Y-93800000D01*
X125580172Y-95000000D02*
X127100000Y-95000000D01*
X124380172Y-93800000D02*
X125580172Y-95000000D01*
X111950000Y-95050000D02*
X112250000Y-94750000D01*
X127100000Y-95000000D02*
X127700000Y-95600000D01*
X112250000Y-94750000D02*
X120350000Y-94750000D01*
%TO.N,SAMA_LCD_FPGA_MPU_NRSTOUT*%
X125750000Y-105000000D02*
X112950000Y-105000000D01*
X112950000Y-105000000D02*
X112000000Y-104050000D01*
%TO.N,SAMA_LCD_FPGA_DEN*%
X113200000Y-104350000D02*
X111350000Y-102500000D01*
X111350000Y-102500000D02*
X108850000Y-102500000D01*
X119850000Y-104350000D02*
X113200000Y-104350000D01*
X123000000Y-101200000D02*
X119850000Y-104350000D01*
%TO.N,SAMA_LCD_FPGA_D21*%
X109200000Y-100900000D02*
X108850000Y-100550000D01*
X122150000Y-101250000D02*
X121800000Y-100900000D01*
X121800000Y-100900000D02*
X109200000Y-100900000D01*
%TO.N,SAMA_LCD_FPGA_TWCK*%
X121381838Y-94100000D02*
X120461838Y-95020000D01*
X112559828Y-95020000D02*
X112119828Y-95460000D01*
X112119828Y-95460000D02*
X110740000Y-95460000D01*
X124298334Y-94100000D02*
X121381838Y-94100000D01*
X125898334Y-95700000D02*
X124298334Y-94100000D01*
X127000000Y-95700000D02*
X125898334Y-95700000D01*
X110740000Y-95460000D02*
X110750000Y-95450000D01*
X120461838Y-95020000D02*
X112559828Y-95020000D01*
%TO.N,SAMA_LCD_FPGA_IRQ1*%
X122150000Y-98050000D02*
X121850000Y-98350000D01*
X121850000Y-98350000D02*
X108012722Y-98350000D01*
X108012722Y-98350000D02*
X107818314Y-98544408D01*
D18*
%TO.N,SAMA_RX*%
X116070414Y-108374349D02*
X116190414Y-108374349D01*
X118830414Y-108134351D02*
X118830414Y-107715000D01*
X117630414Y-107475000D02*
X117630414Y-106815652D01*
X116430414Y-107475000D02*
X116430414Y-106815652D01*
X123750737Y-101800737D02*
X123750737Y-97306511D01*
X104700000Y-111900000D02*
X108300000Y-108300000D01*
X108300000Y-108300000D02*
X114165414Y-108300000D01*
X119190414Y-107475000D02*
X121246135Y-107475000D01*
X117630414Y-108134351D02*
X117630414Y-107475000D01*
X115830414Y-106815652D02*
X115830414Y-107235000D01*
X117030414Y-106815652D02*
X117030414Y-107475000D01*
X118230414Y-106815652D02*
X118230414Y-107475000D01*
X126650000Y-106550000D02*
X126650000Y-104700000D01*
X117870414Y-106575652D02*
X117990414Y-106575652D01*
X115830414Y-107235000D02*
X115830414Y-108134349D01*
X104700000Y-115400000D02*
X104700000Y-111900000D01*
X118470414Y-108374351D02*
X118590414Y-108374351D01*
X116430414Y-108134349D02*
X116430414Y-107475000D01*
X118230414Y-107475000D02*
X118230414Y-108134351D01*
X117030414Y-107475000D02*
X117030414Y-108134351D01*
X117270414Y-108374351D02*
X117390414Y-108374351D01*
X115470414Y-106575652D02*
X115590414Y-106575652D01*
X121246135Y-107475000D02*
X125725000Y-107475000D01*
X125725000Y-107475000D02*
X126650000Y-106550000D01*
X115230414Y-107235000D02*
X115230414Y-106815652D01*
X126650000Y-104700000D02*
X123750737Y-101800737D01*
X116670414Y-106575652D02*
X116790414Y-106575652D01*
X119070414Y-107475000D02*
X119190414Y-107475000D01*
X114165414Y-108300000D02*
X114990414Y-107475000D01*
X116190414Y-108374349D02*
G75*
G03*
X116430349Y-108134349I-14J239949D01*
G01*
X118230414Y-108134351D02*
G75*
G03*
X118470414Y-108374386I239986J-49D01*
G01*
X117030414Y-108134351D02*
G75*
G03*
X117270414Y-108374386I239986J-49D01*
G01*
X118590414Y-108374351D02*
G75*
G03*
X118830351Y-108134351I-14J239951D01*
G01*
X117630414Y-106815652D02*
G75*
G02*
X117870414Y-106575714I239986J-48D01*
G01*
X117990414Y-106575652D02*
G75*
G02*
X118230448Y-106815652I-14J-240048D01*
G01*
X116790414Y-106575652D02*
G75*
G02*
X117030448Y-106815652I-14J-240048D01*
G01*
X115590414Y-106575652D02*
G75*
G02*
X115830448Y-106815652I-14J-240048D01*
G01*
X117390414Y-108374351D02*
G75*
G03*
X117630351Y-108134351I-14J239951D01*
G01*
X115830414Y-108134349D02*
G75*
G03*
X116070414Y-108374386I239986J-51D01*
G01*
X115230414Y-106815652D02*
G75*
G02*
X115470414Y-106575714I239986J-48D01*
G01*
X116430414Y-106815652D02*
G75*
G02*
X116670414Y-106575714I239986J-48D01*
G01*
X114990414Y-107475000D02*
G75*
G03*
X115230400Y-107235000I-14J240000D01*
G01*
X118830414Y-107715000D02*
G75*
G02*
X119070414Y-107475014I239986J0D01*
G01*
D19*
%TO.N,SAMA_LCD_FPGA_VSYNC*%
X119500000Y-101640000D02*
X118990000Y-102150000D01*
X118990000Y-102150000D02*
X109475000Y-102150000D01*
X109475000Y-102150000D02*
X108875000Y-101550000D01*
D18*
%TO.N,SAMA_FPGA_RX*%
X109625000Y-104175000D02*
X110879959Y-105429959D01*
X110450000Y-99200000D02*
X110375000Y-99125000D01*
X122950000Y-94860000D02*
X122540000Y-94860000D01*
X108675000Y-99125000D02*
X107300000Y-100500000D01*
X110375000Y-99125000D02*
X108675000Y-99125000D01*
X123000000Y-97950000D02*
X123000000Y-99600000D01*
X110879959Y-105429959D02*
X110879959Y-107718571D01*
X107300000Y-103350000D02*
X108125000Y-104175000D01*
X122050000Y-95350000D02*
X122050000Y-97000000D01*
X122750000Y-99850000D02*
X111103123Y-99850000D01*
X123000000Y-99600000D02*
X122750000Y-99850000D01*
X110453123Y-99200000D02*
X110450000Y-99200000D01*
X107300000Y-100500000D02*
X107300000Y-103350000D01*
X108125000Y-104175000D02*
X109625000Y-104175000D01*
X122050000Y-97000000D02*
X123000000Y-97950000D01*
X122540000Y-94860000D02*
X122050000Y-95350000D01*
X111103123Y-99850000D02*
X110453123Y-99200000D01*
%TO.N,SAMA_TX*%
X131200000Y-110650000D02*
X132300000Y-109550000D01*
X107650000Y-113800000D02*
X110800000Y-110650000D01*
X107650000Y-115950000D02*
X107650000Y-113800000D01*
X124350000Y-96950000D02*
X123800000Y-96400000D01*
X132300000Y-107900000D02*
X131650000Y-107250000D01*
X129924264Y-107250000D02*
X124350000Y-101675736D01*
X123800000Y-96400000D02*
X122950000Y-96400000D01*
X131650000Y-107250000D02*
X129924264Y-107250000D01*
X124350000Y-101675736D02*
X124350000Y-96950000D01*
X110800000Y-110650000D02*
X131200000Y-110650000D01*
X132300000Y-109550000D02*
X132300000Y-107900000D01*
D19*
%TO.N,SAMA_LCD_FPGA_D13*%
X121390269Y-97940000D02*
X120500269Y-97050000D01*
X109431956Y-97050000D02*
X108883885Y-97598071D01*
X120500269Y-97050000D02*
X109431956Y-97050000D01*
D18*
%TO.N,FPGA_INIT*%
X96900000Y-117050000D02*
X96900000Y-109500000D01*
X96900000Y-109500000D02*
X98850000Y-107550000D01*
X96650000Y-117300000D02*
X96900000Y-117050000D01*
%TO.N,FPGA_TX*%
X102561718Y-112401217D02*
X102561718Y-112521217D01*
X101800000Y-114103803D02*
X101800000Y-116150000D01*
X101800000Y-111801217D02*
X101800000Y-111921217D01*
X101800000Y-113001217D02*
X101800000Y-113121217D01*
X102040000Y-110961217D02*
X102321718Y-110961217D01*
X101818110Y-106522545D02*
X102450000Y-107154435D01*
X102450000Y-110071217D02*
X101800000Y-110721217D01*
X102561718Y-111201217D02*
X102561718Y-111321217D01*
X102321718Y-112761217D02*
X102040000Y-112761217D01*
X102040000Y-112161217D02*
X102321718Y-112161217D01*
X102321718Y-111561217D02*
X102040000Y-111561217D01*
X102450000Y-107154435D02*
X102450000Y-110071217D01*
X101800000Y-113121217D02*
X101800000Y-114103803D01*
X102400000Y-116750000D02*
X102800000Y-116750000D01*
X101800000Y-116150000D02*
X102400000Y-116750000D01*
X102321718Y-112161217D02*
G75*
G02*
X102561683Y-112401217I-18J-239983D01*
G01*
X102040000Y-111561217D02*
G75*
G03*
X101800017Y-111801217I0J-239983D01*
G01*
X101800000Y-110721217D02*
G75*
G03*
X102040000Y-110961200I240000J17D01*
G01*
X101800000Y-111921217D02*
G75*
G03*
X102040000Y-112161200I240000J17D01*
G01*
X102040000Y-112761217D02*
G75*
G03*
X101800017Y-113001217I0J-239983D01*
G01*
X102561718Y-111321217D02*
G75*
G02*
X102321718Y-111561218I-240018J17D01*
G01*
X102561718Y-112521217D02*
G75*
G02*
X102321718Y-112761218I-240018J17D01*
G01*
X102321718Y-110961217D02*
G75*
G02*
X102561683Y-111201217I-18J-239983D01*
G01*
%TO.N,FPGA_RX*%
X102100000Y-117500000D02*
X101350000Y-116750000D01*
X100850000Y-109159678D02*
X100850000Y-106550000D01*
X101350000Y-116750000D02*
X101350000Y-109659678D01*
X102800000Y-117500000D02*
X102100000Y-117500000D01*
X101350000Y-109659678D02*
X100850000Y-109159678D01*
%TO.N,SAMB_BOOT*%
X79400000Y-110250000D02*
X80400000Y-111250000D01*
X81338762Y-107565000D02*
X80248762Y-106475000D01*
X79675000Y-106475000D02*
X79400000Y-106750000D01*
X79400000Y-106750000D02*
X79400000Y-110250000D01*
X76250000Y-93900000D02*
X81050000Y-93900000D01*
X83300000Y-96150000D02*
X83300000Y-106621752D01*
X83300000Y-106621752D02*
X82356752Y-107565000D01*
X81050000Y-93900000D02*
X83300000Y-96150000D01*
X96100000Y-111250000D02*
X96350000Y-111500000D01*
X82356752Y-107565000D02*
X81338762Y-107565000D01*
X80400000Y-111250000D02*
X96100000Y-111250000D01*
X80248762Y-106475000D02*
X79675000Y-106475000D01*
X96350000Y-111500000D02*
X96350000Y-111803532D01*
%TO.N,SAMA_BOOT*%
X131425000Y-108850000D02*
X108800000Y-108850000D01*
X105650000Y-118400000D02*
X105350000Y-118700000D01*
X105650000Y-112000000D02*
X105650000Y-118400000D01*
X98300000Y-117600000D02*
X98300000Y-111750000D01*
X105350000Y-118700000D02*
X99400000Y-118700000D01*
X99400000Y-118700000D02*
X98300000Y-117600000D01*
X108800000Y-108850000D02*
X105650000Y-112000000D01*
%TD*%
M02*
