M48
; DRILL file {KiCad 8.0.1} date 2025-01-10T22:18:12+0500
; FORMAT={-:-/ absolute / metric / decimal}
; #@! TF.CreationDate,2025-01-10T22:18:12+05:00
; #@! TF.GenerationSoftware,Kicad,Pcbnew,8.0.1
; #@! TF.FileFunction,MixedPlating,1,6
FMAT,2
METRIC
; #@! TA.AperFunction,Plated,PTH,ViaDrill
T1C0.200
; #@! TA.AperFunction,Plated,PTH,ViaDrill
T2C0.300
; #@! TA.AperFunction,Plated,PTH,ViaDrill
T3C0.400
; #@! TA.AperFunction,Plated,PTH,ViaDrill
T4C0.500
; #@! TA.AperFunction,Plated,PTH,ComponentDrill
T5C1.000
; #@! TA.AperFunction,Plated,PTH,ComponentDrill
T6C3.200
; #@! TA.AperFunction,NonPlated,NPTH,ComponentDrill
T7C0.650
%
G90
G05
T1
X56.4Y-96.95
X60.675Y-113.173
X61.076Y-111.6
X62.2Y-107.95
X63.101Y-113.156
X63.2Y-111.55
X66.275Y-116.7
X66.9Y-127.05
X67.0Y-102.5
X67.05Y-100.4
X67.05Y-101.45
X67.1Y-95.85
X67.1Y-96.9
X67.15Y-94.8
X68.5Y-104.0
X69.3Y-104.0
X69.45Y-96.3
X69.45Y-96.9
X69.5Y-94.8
X69.5Y-95.4
X70.95Y-99.05
X72.55Y-95.4
X73.2Y-96.2
X73.9Y-101.0
X74.55Y-108.4
X75.0Y-97.35
X75.85Y-99.856
X75.853Y-102.14
X75.933Y-103.022
X76.25Y-93.9
X76.65Y-103.0
X76.677Y-106.173
X76.706Y-100.6
X77.85Y-99.95
X78.65Y-106.4
X79.035Y-104.6
X79.089Y-100.087
X79.6Y-101.0
X79.85Y-105.4
X79.9Y-104.65
X79.9Y-106.95
X79.96Y-104.104
X80.1Y-97.9
X80.25Y-99.5
X80.3Y-108.0
X80.594Y-106.2
X80.65Y-96.6
X80.94Y-102.35
X81.05Y-104.45
X81.4Y-98.6
X81.45Y-107.0
X82.05Y-99.45
X82.1Y-98.6
X82.15Y-103.95
X82.2Y-104.65
X82.2Y-106.2
X82.2Y-107.05
X82.4Y-100.2
X82.4Y-101.0
X82.93Y-95.048
X83.774Y-106.128
X83.8Y-94.6
X83.8Y-96.5
X83.85Y-103.0
X84.2Y-101.9
X84.25Y-100.9
X84.503Y-99.835
X84.633Y-98.984
X84.65Y-102.3
X84.65Y-106.2
X84.65Y-107.0
X84.9Y-88.25
X85.35Y-95.893
X85.398Y-94.33
X85.4Y-95.05
X85.423Y-105.427
X85.449Y-104.543
X85.45Y-97.4
X85.45Y-100.6
X85.45Y-102.2
X85.45Y-103.8
X85.45Y-107.05
X85.55Y-101.3
X86.25Y-100.65
X86.253Y-99.741
X86.3Y-104.6
X86.318Y-98.988
X87.0Y-106.15
X87.043Y-99.78
X87.05Y-100.6
X87.06Y-107.785
X87.8Y-99.74
X88.05Y-105.15
X91.5Y-86.0
X92.509Y-99.405
X95.0Y-88.0
X95.7Y-98.4
X95.7Y-109.05
X95.75Y-100.05
X95.838Y-105.177
X95.9Y-108.5
X96.35Y-110.05
X96.35Y-111.804
X96.65Y-117.3
X96.75Y-94.45
X96.816Y-104.264
X96.918Y-99.96
X97.676Y-105.577
X97.8Y-106.5
X97.849Y-100.531
X97.85Y-94.55
X97.9Y-102.61
X98.0Y-104.505
X98.3Y-111.75
X98.8Y-106.6
X98.847Y-101.547
X98.85Y-96.55
X98.85Y-97.55
X98.85Y-104.65
X98.85Y-107.55
X98.9Y-108.5
X99.0Y-88.0
X99.35Y-109.65
X99.5Y-86.0
X99.85Y-96.55
X99.85Y-98.55
X99.85Y-99.55
X99.853Y-102.553
X99.864Y-100.512
X99.9Y-104.55
X99.9Y-105.6
X99.927Y-103.422
X100.0Y-85.6
X100.5Y-86.05
X100.732Y-109.643
X100.762Y-103.649
X100.784Y-97.427
X100.8Y-102.5
X100.823Y-96.522
X100.85Y-95.55
X100.85Y-106.55
X101.0Y-88.0
X101.0Y-99.55
X101.5Y-86.0
X101.669Y-100.528
X101.789Y-103.549
X101.795Y-108.199
X101.818Y-106.523
X101.85Y-102.55
X101.875Y-101.496
X101.935Y-96.634
X102.0Y-88.0
X102.009Y-98.419
X102.5Y-86.0
X102.75Y-95.45
X102.8Y-116.75
X102.8Y-117.5
X102.846Y-105.615
X102.85Y-98.425
X102.85Y-101.55
X102.851Y-97.676
X102.882Y-96.527
X102.884Y-103.567
X102.933Y-99.666
X103.0Y-85.6
X103.35Y-109.65
X103.5Y-88.0
X103.765Y-96.517
X103.8Y-106.6
X103.815Y-95.6
X103.829Y-107.47
X103.841Y-99.515
X103.85Y-98.5
X103.9Y-105.6
X104.0Y-86.0
X104.55Y-87.95
X104.6Y-86.0
X104.7Y-115.4
X104.829Y-97.595
X104.833Y-96.446
X104.846Y-105.56
X104.85Y-98.5
X104.85Y-103.35
X104.853Y-100.547
X104.875Y-89.6
X104.921Y-102.548
X105.2Y-87.95
X105.25Y-86.0
X105.3Y-91.6
X105.35Y-109.65
X105.712Y-98.558
X105.75Y-107.65
X105.8Y-102.5
X105.85Y-100.55
X106.0Y-88.0
X106.3Y-92.35
X106.586Y-85.314
X106.725Y-99.43
X106.85Y-97.55
X106.85Y-107.6
X106.85Y-108.6
X106.9Y-96.5
X107.5Y-88.0
X107.65Y-115.95
X107.777Y-96.377
X107.799Y-107.214
X107.818Y-98.544
X107.825Y-93.293
X107.85Y-97.5
X107.85Y-100.55
X107.85Y-102.55
X107.88Y-105.638
X107.9Y-106.6
X107.95Y-95.45
X108.0Y-88.228
X108.5Y-88.0
X108.54Y-105.625
X108.8Y-96.6
X108.8Y-99.6
X108.85Y-100.55
X108.85Y-102.5
X108.85Y-107.75
X108.875Y-101.55
X108.884Y-97.598
X108.9Y-104.6
X109.011Y-85.689
X109.6Y-86.05
X109.65Y-87.95
X109.685Y-97.665
X109.725Y-95.65
X109.85Y-96.55
X109.85Y-99.55
X109.85Y-103.75
X109.9Y-106.5
X109.95Y-101.65
X110.25Y-86.05
X110.75Y-95.45
X110.88Y-107.719
X111.0Y-88.0
X111.35Y-109.6
X111.756Y-92.806
X111.85Y-107.7
X111.95Y-95.05
X112.0Y-104.05
X112.18Y-93.23
X112.3Y-110.2
X112.75Y-92.75
X112.9Y-127.05
X113.0Y-86.0
X113.175Y-91.881
X114.0Y-86.0
X114.8Y-86.0
X115.4Y-86.0
X116.0Y-88.0
X118.202Y-118.733
X119.5Y-101.64
X119.5Y-102.46
X119.613Y-106.485
X119.8Y-108.4
X120.0Y-115.05
X120.55Y-102.85
X121.207Y-103.693
X121.35Y-102.05
X121.39Y-97.94
X121.5Y-114.95
X122.074Y-94.724
X122.112Y-104.456
X122.15Y-98.05
X122.15Y-98.85
X122.15Y-101.25
X122.613Y-120.863
X122.9Y-106.9
X122.9Y-108.425
X122.95Y-94.86
X122.95Y-96.4
X122.95Y-106.05
X122.961Y-103.625
X123.0Y-101.2
X123.0Y-102.8
X123.6Y-120.35
X123.75Y-108.425
X123.751Y-97.307
X123.875Y-95.192
X124.3Y-107.9
X124.5Y-118.858
X124.548Y-105.41
X124.55Y-106.85
X124.552Y-96.425
X124.625Y-117.376
X124.65Y-103.45
X125.05Y-101.05
X125.55Y-98.7
X125.75Y-94.59
X125.75Y-105.0
X126.2Y-96.5
X126.225Y-106.15
X126.55Y-94.59
X126.95Y-96.45
X126.95Y-97.25
X126.96Y-98.04
X127.0Y-95.7
X127.0Y-118.45
X127.6Y-122.1
X127.7Y-95.6
X127.7Y-97.2
X128.1Y-101.15
X128.5Y-98.8
X128.55Y-103.65
X128.635Y-98.115
X128.95Y-107.0
X129.0Y-94.8
X129.298Y-110.05
X129.902Y-110.05
X130.15Y-106.825
X130.2Y-105.3
X130.55Y-94.61
X130.9Y-103.6
X130.923Y-107.675
X130.95Y-102.06
X130.95Y-123.1
X130.961Y-98.861
X131.006Y-101.25
X131.425Y-108.85
X131.669Y-97.332
X131.75Y-100.45
X132.061Y-103.85
X132.15Y-94.75
X132.532Y-106.038
X133.15Y-122.45
X133.3Y-106.0
X133.35Y-98.95
X133.48Y-107.17
X134.05Y-101.65
X134.8Y-107.3
X134.85Y-101.3
X135.2Y-107.55
X137.208Y-119.466
X137.5Y-119.0
X139.5Y-101.6
X139.5Y-102.7
X139.5Y-103.75
X139.55Y-95.95
X139.55Y-96.95
X139.55Y-98.0
X140.55Y-121.35
X149.375Y-115.8
X149.4Y-116.8
X151.4Y-100.6
T2
X57.95Y-118.75
X58.6Y-116.05
X60.15Y-109.1
X61.0Y-115.9
X61.0Y-116.75
X61.5Y-98.1
X62.9Y-115.7
X62.9Y-116.7
X63.022Y-120.625
X65.3Y-112.85
X66.6Y-98.55
X66.95Y-113.05
X69.5Y-99.25
X73.65Y-104.079
X74.0Y-106.6
X78.65Y-95.24
X83.45Y-93.05
X87.75Y-114.05
X89.25Y-120.35
X92.75Y-114.7
X95.6Y-113.6
X96.35Y-119.95
X98.05Y-120.3
X98.95Y-112.0
X99.5Y-127.9
X99.9Y-115.6
X100.2Y-129.45
X101.2Y-127.2
X102.45Y-130.104
X103.8Y-130.15
X105.15Y-119.95
X105.2Y-130.2
X106.2Y-115.225
X106.55Y-130.25
X106.85Y-114.8
X107.55Y-112.9
X107.7Y-117.35
X110.3Y-116.05
X112.35Y-114.25
X113.2Y-116.1
X113.35Y-110.1
X116.95Y-87.95
X117.0Y-114.15
X118.0Y-87.95
X118.9Y-87.95
X118.971Y-112.179
X119.45Y-124.35
X119.9Y-118.35
X119.9Y-119.15
X120.144Y-94.234
X120.85Y-119.2
X121.3Y-83.1
X121.75Y-119.1
X121.8Y-118.15
X122.35Y-83.5
X123.15Y-125.85
X124.3Y-84.2
X124.3Y-85.25
X124.95Y-112.3
X125.85Y-120.0
X126.25Y-121.9
X127.25Y-117.7
X128.4Y-120.4
X130.45Y-89.7
X132.2Y-120.45
X133.0Y-89.7
X133.4Y-94.85
X133.6Y-108.05
X133.9Y-109.3
X135.5Y-116.95
X135.55Y-89.7
X135.55Y-114.45
X135.675Y-111.2
X135.7Y-115.9
X136.609Y-99.044
X137.1Y-96.9
X137.15Y-102.15
X137.15Y-103.25
X137.2Y-95.25
X137.75Y-110.3
X137.9Y-115.8
X138.05Y-89.7
X138.05Y-116.9
X138.1Y-114.35
X141.7Y-99.7
X142.18Y-112.4
X143.0Y-99.7
X143.8Y-117.25
X144.4Y-99.7
X144.85Y-117.55
X145.7Y-99.7
X147.15Y-99.7
X148.45Y-99.7
X151.3Y-101.7
T3
X55.35Y-114.4
X55.6Y-121.0
X56.0Y-118.15
X56.65Y-95.85
X56.85Y-92.35
X56.9Y-91.2
X57.05Y-116.175
X58.4Y-91.15
X59.8Y-122.95
X60.0Y-91.15
X61.4Y-91.25
X62.4Y-122.55
X63.8Y-122.55
X63.8Y-129.95
X64.0Y-86.05
X64.0Y-87.85
X64.0Y-89.4
X64.05Y-84.2
X64.35Y-111.1
X65.25Y-129.95
X66.8Y-129.95
X67.05Y-120.15
X67.15Y-121.7
X67.2Y-86.05
X67.2Y-87.85
X67.2Y-89.4
X67.25Y-84.2
X68.35Y-130.0
X68.45Y-119.95
X68.65Y-116.7
X69.8Y-116.7
X70.2Y-86.05
X70.2Y-87.85
X70.2Y-89.4
X70.25Y-84.2
X73.35Y-93.45
X73.4Y-86.05
X73.45Y-84.2
X73.8Y-130.6
X73.85Y-99.16
X75.8Y-130.65
X76.55Y-84.2
X77.8Y-130.65
X78.6Y-118.75
X79.75Y-84.2
X79.8Y-118.7
X79.8Y-130.7
X80.7Y-120.8
X81.8Y-130.7
X82.85Y-83.5
X83.8Y-130.75
X84.75Y-84.15
X85.85Y-130.75
X86.35Y-121.2
X87.45Y-121.2
X87.85Y-84.1
X87.85Y-130.8
X88.45Y-89.55
X88.65Y-121.25
X89.1Y-115.55
X89.1Y-116.65
X89.1Y-117.7
X89.95Y-118.75
X90.4Y-112.4
X91.8Y-112.4
X92.35Y-84.5
X95.3Y-84.55
X96.4Y-122.2
X97.7Y-84.55
X99.857Y-110.391
X99.9Y-122.95
X100.85Y-84.55
X104.5Y-120.75
X109.1Y-130.2
X109.8Y-109.95
X111.05Y-130.2
X111.1Y-112.4
X112.35Y-117.25
X112.45Y-118.2
X112.9Y-130.25
X113.35Y-122.4
X114.85Y-119.35
X114.9Y-122.75
X114.95Y-120.75
X117.2Y-117.4
X118.4Y-124.95
X118.85Y-85.85
X119.6Y-112.95
X120.9Y-125.5
X122.1Y-112.95
X122.75Y-87.1
X125.2Y-124.6
X126.5Y-116.55
X127.1Y-126.65
X132.35Y-129.9
X133.3Y-113.4
X133.3Y-118.3
X133.6Y-129.9
X134.9Y-129.9
X134.9Y-131.0
X136.2Y-129.9
X137.4Y-129.9
X139.65Y-109.85
X140.5Y-111.0
X141.55Y-111.0
X143.45Y-114.45
X144.05Y-113.25
T4
X55.75Y-105.95
X55.75Y-107.25
X59.25Y-106.45
X59.75Y-104.15
X89.9Y-88.55
X124.4Y-90.4
X140.4Y-129.9
X141.1Y-92.05
X142.15Y-130.0
X142.45Y-123.3
X142.9Y-92.05
X143.95Y-130.0
X144.3Y-123.4
X144.6Y-92.1
X144.7Y-90.25
X145.3Y-84.15
X145.3Y-85.9
X145.3Y-87.7
X145.4Y-107.1
X145.75Y-129.95
X146.4Y-92.1
X146.4Y-93.9
X146.65Y-125.3
X146.75Y-111.0
X147.15Y-107.1
X147.2Y-105.5
X147.2Y-108.65
X148.15Y-92.1
X148.15Y-93.9
X148.2Y-90.3
X148.95Y-105.5
X148.95Y-107.1
X148.95Y-108.65
X149.95Y-92.1
X149.95Y-93.9
X150.0Y-90.3
X150.65Y-121.1
X150.7Y-107.2
X150.75Y-105.5
X150.75Y-108.65
X150.75Y-111.0
X151.75Y-90.3
X151.85Y-92.05
X152.35Y-116.8
X152.35Y-118.6
X152.4Y-106.65
X152.4Y-113.2
X152.45Y-115.05
T5
X116.92Y-130.5
X119.46Y-130.5
X122.0Y-130.5
X124.54Y-130.5
X127.08Y-130.5
X127.91Y-85.75
X129.62Y-130.5
X130.45Y-85.75
X132.99Y-85.75
X135.53Y-85.75
X138.07Y-85.75
X140.61Y-85.75
T6
X58.0Y-86.0
X58.0Y-128.0
X150.0Y-86.0
X150.0Y-128.0
T7
X149.284Y-113.16
X149.284Y-118.94
M30
